<!-- Generated by IcoMoon.io -->
<svg version="1.1" xmlns="http://www.w3.org/2000/svg" width="32" height="32" viewBox="0 0 32 32">
<title>addition_fill</title>
<path d="M22.829 16.911h-5.559v5.559c0 0.702-0.569 1.271-1.271 1.271s-1.271-0.569-1.271-1.271v0-5.559h-5.559c-0.702 0-1.271-0.569-1.271-1.271s0.569-1.271 1.271-1.271v0h5.559v-5.559c0-0.702 0.569-1.271 1.271-1.271s1.271 0.569 1.271 1.271v0 5.559h5.559c0.702 0 1.271 0.569 1.271 1.271s-0.569 1.271-1.271 1.271v0zM16 0.75c-8.409 0-15.25 6.842-15.25 15.25 0 8.409 6.841 15.25 15.25 15.25s15.25-6.841 15.25-15.25c0-8.408-6.841-15.25-15.25-15.25z"></path>
</svg>
