<!-- Generated by IcoMoon.io -->
<svg version="1.1" xmlns="http://www.w3.org/2000/svg" width="32" height="32" viewBox="0 0 32 32">
<title>add</title>
<path d="M27.771 1.285h-23.545c-1.947 0-3.532 1.585-3.532 3.532v18.835c0 1.947 1.585 3.532 3.532 3.532h7.752l3.188 3.188c0.229 0.229 0.529 0.344 0.835 0.344 0.3 0 0.605-0.115 0.835-0.344l3.188-3.188h7.752c1.947 0 3.532-1.585 3.532-3.532v-18.835c-0.004-1.947-1.589-3.532-3.536-3.532zM20.707 15.403h-3.532v3.532c0 0.649-0.525 1.179-1.179 1.179-0.649 0-1.179-0.525-1.179-1.179v-3.532h-3.532c-0.649 0-1.179-0.525-1.179-1.179s0.525-1.179 1.179-1.179h3.532v-3.532c0-0.649 0.525-1.179 1.179-1.179 0.649 0 1.179 0.525 1.179 1.179v3.532h3.532c0.649 0 1.179 0.525 1.179 1.179s-0.529 1.179-1.179 1.179z"></path>
</svg>
