<?xml version="1.0" encoding="UTF-8"?>
<svg width="18px" height="19px" viewBox="0 0 18 19" version="1.1" xmlns="http://www.w3.org/2000/svg" xmlns:xlink="http://www.w3.org/1999/xlink">
    <title>图标-表单-地址</title>
    <g id="预约单分单系统" stroke="none" stroke-width="1" fill="none" fill-rule="evenodd">
        <g id="15-预约单详情页" transform="translate(-16.000000, -240.000000)">
            <g id="芝麻分" transform="translate(0.000000, 176.000000)">
                <g id="输入栏-copy" transform="translate(16.000000, 48.000000)">
                    <g id="学历水平">
                        <g id="图标-表单-地址" transform="translate(0.000000, 16.000000)">
                            <rect id="Rectangle" x="0" y="0.5" width="18" height="18"></rect>
                            <path d="M9.00350083,1 C4.85904383,1 1.5,4.25406918 1.5,8.26354728 C1.5,10.1093428 2.21528699,11.7842314 3.38288782,13.0660338 C3.4144446,13.1241422 3.45652031,13.1822506 3.50560863,13.2335227 L8.37937786,17.4045886 C8.40392202,17.4353519 8.42846619,17.4695333 8.45651666,17.4968784 C8.53014914,17.5686593 8.61430055,17.6199314 8.70546458,17.657531 C8.98596928,17.7840021 9.32608124,17.7429845 9.55399131,17.5208054 C9.61710487,17.4592789 9.66619319,17.3874979 9.70125628,17.3122988 L14.4838615,13.2335227 C14.5294435,13.192505 14.5645066,13.1412329 14.5960634,13.0899608 C15.7776894,11.8081584 16.5,10.1195972 16.5,8.26696542 C16.5070017,4.25406918 13.1479578,1 9.00350083,1 Z" id="Shape" fill="#BCC3CC" fill-rule="nonzero"></path>
                            <circle id="Oval" fill="#FFFFFF" cx="9" cy="8" r="2.5"></circle>
                        </g>
                    </g>
                </g>
            </g>
        </g>
    </g>
</svg>