<!-- Generated by IcoMoon.io -->
<svg version="1.1" xmlns="http://www.w3.org/2000/svg" width="32" height="32" viewBox="0 0 32 32">
<title>cancel-outcircle</title>
<path d="M26.812 5.184c-2.892-2.892-6.815-4.517-10.905-4.517s-8.013 1.625-10.905 4.517c-5.848 6.053-5.767 15.676 0.184 21.629s15.575 6.036 21.629 0.189c2.893-2.893 4.517-6.817 4.517-10.909s-1.627-8.015-4.521-10.907l0.003-0.003zM22.626 20.925c0.485 0.527 0.468 1.341-0.037 1.848s-1.321 0.523-1.848 0.037l-4.841-4.832-4.829 4.832c-0.527 0.485-1.341 0.468-1.848-0.037s-0.523-1.321-0.037-1.848l4.836-4.832-4.836-4.833c-0.485-0.527-0.468-1.341 0.037-1.848s1.321-0.523 1.848-0.037l4.829 4.833 4.836-4.836c0.527-0.485 1.341-0.468 1.848 0.037s0.523 1.321 0.037 1.848l-4.833 4.836 4.839 4.832z"></path>
</svg>
