<!-- Generated by IcoMoon.io -->
<svg version="1.1" xmlns="http://www.w3.org/2000/svg" width="32" height="32" viewBox="0 0 32 32">
<title>check-outcircle</title>
<path d="M16 0.667c-8.468 0-15.333 6.865-15.333 15.333s6.865 15.333 15.333 15.333c8.468 0 15.333-6.865 15.333-15.333s-6.865-15.333-15.333-15.333zM24.117 11.939l-9.725 9.831c-0.003 0.003-0.007 0.004-0.009 0.007s-0.004 0.007-0.007 0.009c-0.077 0.075-0.173 0.121-0.264 0.172-0.045 0.025-0.081 0.064-0.129 0.083-0.145 0.059-0.3 0.088-0.455 0.088s-0.312-0.031-0.459-0.091c-0.048-0.020-0.088-0.063-0.133-0.088-0.089-0.051-0.184-0.096-0.261-0.172-0.003-0.003-0.004-0.007-0.007-0.009s-0.007-0.004-0.009-0.007l-4.783-4.915c-0.468-0.481-0.456-1.249 0.024-1.717s1.248-0.457 1.717 0.024l3.919 4.028 8.853-8.951c0.471-0.477 1.241-0.483 1.717-0.009 0.475 0.472 0.48 1.241 0.008 1.719z"></path>
</svg>
