<!-- Generated by IcoMoon.io -->
<svg version="1.1" xmlns="http://www.w3.org/2000/svg" width="32" height="32" viewBox="0 0 32 32">
<title>clock</title>
<path d="M16.729 17.461c0 0 0.208-0.208 0.208-0.417v-7.090c0-0.625-0.417-1.043-1.043-1.043-0.417 0-1.043 0.417-1.043 1.043v6.256l-4.38 4.38c-0.417 0.417-0.417 1.043 0 1.46 0.208 0.208 0.625 0.417 0.835 0.417s0.625-0.208 0.835-0.417l4.588-4.588zM15.896 3.488c7.090 0 12.93 5.84 12.93 13.138 0 3.337-1.251 6.256-3.128 8.55l2.295 2.295c0.835 0.835 0.835 2.295 0 3.128-0.417 0.417-1.043 0.625-1.46 0.625-0.625 0-1.043-0.208-1.46-0.625l-2.503-2.503c-1.877 1.043-3.962 1.668-6.465 1.668-2.295 0-4.588-0.625-6.465-1.668l-2.503 2.503c-0.417 0.417-1.043 0.625-1.46 0.625-0.625 0-1.043-0.208-1.46-0.625-0.835-0.835-0.835-2.295 0-3.128l2.295-2.295c-2.295-2.295-3.545-5.213-3.545-8.55 0-7.3 5.84-13.138 12.93-13.138v0zM22.569 2.862c0.835-1.252 2.295-2.085 3.962-2.085 2.711 0 4.797 2.085 4.797 4.797 0 1.668-0.835 2.92-1.877 3.755-1.668-2.711-3.962-5.005-6.882-6.465v0zM5.468 0.777c1.668 0 3.128 0.835 3.962 2.085-2.92 1.46-5.213 3.755-6.882 6.673-1.043-1.043-1.877-2.295-1.877-3.963 0-2.711 2.295-4.797 4.797-4.797z"></path>
</svg>
