<?xml version="1.0" encoding="UTF-8"?>
<svg width="17px" height="17px" viewBox="0 0 17 17" version="1.1" xmlns="http://www.w3.org/2000/svg" xmlns:xlink="http://www.w3.org/1999/xlink">
    <title>dianzannot</title>
    <defs>
        <rect id="path-1" x="0" y="0" width="17" height="17"></rect>
    </defs>
    <g id="页面-1" stroke="none" stroke-width="1" fill="none" fill-rule="evenodd">
        <g id="画板" transform="translate(-20.000000, -10.000000)">
            <g id="dianzannot" transform="translate(20.000000, 10.000000)">
                <mask id="mask-2" fill="white">
                    <use xlink:href="#path-1"></use>
                </mask>
                <use id="蒙版" fill="#D8D8D8" opacity="0" xlink:href="#path-1"></use>
                <g id="点赞" mask="url(#mask-2)" fill="#9CA3AE" fill-rule="nonzero">
                    <g transform="translate(1.000000, 2.000000)" id="形状">
                        <path d="M14.6727897,5.48344066 C14.1518791,4.91191352 13.3009395,4.91191352 13.0208609,4.91191352 L10.7766639,4.91191352 C10.9586259,4.02322907 11.1138287,2.98965041 10.7802318,1.89972401 C10.5518875,1.14949402 10.1326615,0.616605336 9.49579478,0.272079117 C9.16219793,0.0917663293 8.8161135,0 8.46467725,0 C7.54059615,0 6.8484273,0.618215271 6.74495876,1.54070837 C6.70571207,1.88523459 6.67003326,2.21205152 6.5790523,2.49218031 C6.24010364,3.52092916 5.41235531,4.30657774 4.6470449,4.93606256 C4.36161445,5.16789328 4.05656065,5.58325667 4.05299277,6.05013799 C4.04228913,7.29944802 4.04050518,8.55358786 4.04050518,9.8350966 L4.03870016,12.1115455 C4.03515336,12.8730451 4.48470633,13.4864305 5.23396128,13.74885 C5.62999604,13.8937443 6.04922202,13.974241 6.48450346,13.9855106 C7.17667232,13.9935603 7.87240906,13.9935603 8.52354729,13.9935603 L9.53860934,13.9935603 C10.2022352,13.9935603 10.865861,13.9935603 11.5330547,14 L11.5544619,14 C12.330476,14 12.9405836,13.650644 13.2295819,13.0420883 L13.3152111,12.8633855 C13.5167963,12.4448022 13.7237334,12.0117295 13.8521771,11.5303588 C14.244644,10.0669273 14.6531663,8.50045998 14.9831953,6.96136155 C15.1152069,6.35119595 15.0117383,5.85372585 14.6727897,5.48344066 Z M1.838425,5.60292088 L1.64618197,5.60292088 C0.73827788,5.60292088 0,6.28610856 0,7.12626495 L0,12.3346366 C0,13.174793 0.73827788,13.8579807 1.64618197,13.8579807 L1.838425,13.8579807 C2.74632909,13.8579807 3.48460961,13.174793 3.48460961,12.3346366 L3.48460961,7.12626495 C3.48622246,6.28610856 2.74632909,5.60292088 1.838425,5.60292088 L1.838425,5.60292088 Z" transform="translate(7.519350, 7.000000) scale(1, -1) translate(-7.519350, -7.000000) "></path>
                    </g>
                </g>
            </g>
        </g>
    </g>
</svg>