<!-- Generated by IcoMoon.io -->
<svg version="1.1" xmlns="http://www.w3.org/2000/svg" width="32" height="32" viewBox="0 0 32 32">
<title>download</title>
<path d="M10.5 15.873l5.184 5.297c0.119 0.122 0.315 0.124 0.437 0.005 0.001-0.001 0.002-0.002 0.002-0.002l5.297-5.297c0.121-0.121 0.121-0.316 0-0.437-0.058-0.058-0.136-0.090-0.218-0.090h-2.36c-0.171 0-0.309-0.138-0.309-0.309v-10.668c0-0.17-0.138-0.309-0.309-0.309h-4.537c-0.171 0-0.309 0.138-0.309 0.309v10.668c0 0.171-0.138 0.309-0.309 0.309h-2.348c-0.171 0-0.309 0.138-0.309 0.309 0 0.081 0.032 0.158 0.088 0.216zM9.981 11.952v-9.742c0-0.853 0.691-1.544 1.544-1.544h8.86c0.853 0 1.544 0.691 1.544 1.544v9.742h4.491c0.853 0 1.544 0.691 1.544 1.544 0 0.409-0.163 0.802-0.452 1.091l-10.53 10.53c-0.603 0.603-1.58 0.603-2.183 0-0.003-0.003-3.442-3.517-10.319-10.542-0.596-0.609-0.586-1.587 0.023-2.183 0.288-0.282 0.676-0.44 1.080-0.44h4.4z"></path>
<path d="M5.908 27.937h20.067c0.853 0 1.544 0.691 1.544 1.544v0.309c0 0.853-0.691 1.544-1.544 1.544h-20.067c-0.853 0-1.544-0.691-1.544-1.544v-0.309c0-0.853 0.691-1.544 1.544-1.544z"></path>
</svg>
