<?xml version="1.0" encoding="UTF-8"?>
<svg width="11px" height="16px" viewBox="0 0 11 16" version="1.1" xmlns="http://www.w3.org/2000/svg" xmlns:xlink="http://www.w3.org/1999/xlink">
    <title>路径</title>
    <g id="客户提额降息" stroke="none" stroke-width="1" fill="none" fill-rule="evenodd">
        <g id="历史申请记录" transform="translate(-36.000000, -168.000000)" fill="#B3CAFF" fill-rule="nonzero">
            <g id="编组备份-9" transform="translate(20.000000, 107.000000)">
                <g id="编组-2" transform="translate(16.000000, 60.000000)">
                    <g id="下降" transform="translate(0.000000, 1.000000)">
                        <path d="M5.25788557,15.8837014 L0.0802791425,9.66585066 L0.080279159,9.66585068 C-0.0376390186,9.52454464 -0.0240765136,9.30967486 0.110571858,9.18592611 C0.169716002,9.1315696 0.24567199,9.101629 0.324289522,9.10168216 L3.1189776,9.10168216 L3.1189776,9.10168216 C3.2991872,9.09733342 3.44310247,8.94274818 3.4430548,8.75357791 L3.44305528,8.7534289 C3.44660615,7.66870362 3.38419975,6.58485085 3.25621678,5.50846607 C2.90928187,2.8598321 1.6892241,1.37137887 0.74749977,0.603158055 L0.747499789,0.603158071 C0.609068071,0.484095729 0.588818852,0.269806843 0.702270976,0.124529767 C0.778594839,0.0267966929 0.900258965,-0.0184715746 1.01819949,0.00698025489 C6.46650473,0.951261703 7.61031448,7.35716312 7.81619934,8.80960552 L7.81619934,8.80960551 C7.83573322,8.97877984 7.97411145,9.10498352 8.13646369,9.10169204 L10.6795097,9.10169204 L10.6795098,9.10169204 C10.8584812,9.10377088 11.0019614,9.2577153 11,9.44553692 C10.999124,9.52667608 10.970653,9.6048196 10.9197074,9.66585977 L5.74591533,15.8837105 L5.74591534,15.8837105 C5.62812888,16.0251375 5.42339666,16.0395807 5.28863282,15.9159703 C5.27770974,15.9059512 5.26744,15.8951737 5.25789298,15.8837105 L5.25788557,15.8837014 Z" id="路径"></path>
                    </g>
                </g>
            </g>
        </g>
    </g>
</svg>