<!-- Generated by IcoMoon.io -->
<svg version="1.1" xmlns="http://www.w3.org/2000/svg" width="32" height="32" viewBox="0 0 32 32">
<title>edit</title>
<path d="M28.92 27.723h-25.841c-0.66 0-1.269 0.344-1.599 0.903s-0.329 1.247 0 1.805c0.329 0.559 0.939 0.903 1.599 0.903h25.841c1.019 0 1.845-0.808 1.845-1.805s-0.827-1.805-1.845-1.805v0zM4.52 24.897h3.479c0.523-0.001 1.024-0.207 1.393-0.569l13.622-13.288c0.104-0.1 0.163-0.236 0.163-0.379s-0.059-0.279-0.163-0.379l-4.448-4.351c-0.103-0.101-0.241-0.159-0.388-0.159s-0.285 0.057-0.388 0.159l-13.612 13.288c-0.371 0.361-0.58 0.851-0.581 1.363v3.403c-0.003 0.241 0.093 0.473 0.267 0.644s0.409 0.268 0.656 0.268zM24.971 8.369c0.103 0.101 0.241 0.159 0.388 0.159s0.285-0.057 0.388-0.159l1.596-1.561c0.724-0.703 1.119-1.665 1.091-2.663s-0.476-1.937-1.239-2.6c-1.543-1.268-3.827-1.149-5.223 0.271l-1.449 1.444c-0.104 0.1-0.163 0.236-0.163 0.379s0.059 0.279 0.163 0.379l4.448 4.351z"></path>
</svg>
