<!-- Generated by IcoMoon.io -->
<svg version="1.1" xmlns="http://www.w3.org/2000/svg" width="32" height="32" viewBox="0 0 32 32">
<title>female</title>
<path d="M1.132 31.333h29.737c0-6.532-6.376-8.699-14.868-8.699s-14.868 2.181-14.868 8.699z"></path>
<path d="M16 21.34c-4.36 0-7.703-0.297-10.028-0.893 0.888-0.547 1.755-1.156 2.307-2.535-1.257 0.781-2.693 0.917-4.288 0.461 2.093-1.136 3.355-3.964 4.164-10.734 0.297-2.48 1.291-4.567 2.195-5.324 2.5-2.1 7.644-2.191 10.18-0.289 1.528 1.147 2.952 6.030 3.016 9.854 0.317 4.799-0.188 5.424 2.023 8.016 0 0-3.029 1.444-9.57 1.444z"></path>
</svg>
