<!-- Generated by IcoMoon.io -->
<svg version="1.1" xmlns="http://www.w3.org/2000/svg" width="32" height="32" viewBox="0 0 32 32">
<title>filter</title>
<path d="M17.939 31.332c-0.517 0-0.992-0.119-1.45-0.357l-3.951-2.201c-0.973-0.521-1.577-1.536-1.569-2.64v-12.534c-0.004-0.187-0.093-0.361-0.241-0.476l-9.134-7.32-0.098-0.119c-0.855-0.855-1.053-2.122-0.577-3.233 0.465-1.096 1.547-1.803 2.738-1.785h24.65c1.19 0 2.269 0.699 2.76 1.785s0.278 2.363-0.537 3.233l-0.12 0.119-9.254 7.399c-0.138 0.12-0.218 0.293-0.219 0.476v14.64c0.025 1.64-1.284 2.989-2.925 3.013h-0.075zM3.165 4.019l9.096 7.261c0.711 0.574 1.133 1.428 1.133 2.339v12.534c0 0.219 0.097 0.437 0.296 0.537l3.954 2.162c0.18 0.097 0.416 0.097 0.613 0 0.185-0.114 0.298-0.316 0.298-0.534v-14.618c0-0.913 0.399-1.765 1.115-2.344l9.116-7.335c0.136-0.184 0.158-0.429 0.057-0.635-0.099-0.206-0.308-0.337-0.537-0.338h-24.643c-0.232-0.008-0.444 0.125-0.537 0.338-0.109 0.202-0.093 0.448 0.039 0.635v-0.003zM30.193 16.476h-6.483c-0.642-0.018-1.149-0.548-1.139-1.19 0-0.656 0.511-1.19 1.139-1.19h6.483c0.627 0 1.139 0.534 1.139 1.19 0.012 0.311-0.102 0.612-0.318 0.837s-0.511 0.352-0.822 0.353v0zM30.193 21.047h-6.483c-0.642-0.018-1.149-0.548-1.139-1.19 0-0.657 0.511-1.191 1.139-1.191h6.483c0.627 0 1.139 0.537 1.139 1.191 0.012 0.311-0.102 0.612-0.318 0.837s-0.511 0.352-0.822 0.353v0zM30.193 25.618h-6.483c-0.642-0.018-1.15-0.549-1.139-1.191 0-0.653 0.511-1.19 1.139-1.19h6.483c0.627 0 1.139 0.537 1.139 1.19 0.010 0.309-0.106 0.611-0.32 0.834s-0.51 0.353-0.819 0.357v0z"></path>
</svg>
