<svg aria-hidden="true" style="position: absolute; width: 0; height: 0; overflow: hidden;" version="1.1" xmlns="http://www.w3.org/2000/svg" xmlns:xlink="http://www.w3.org/1999/xlink">
<defs>
<symbol id="icon-loading" viewBox="0 0 24 24">
<path d="M22.063 13.437h-2.874c-0.791 0-1.437-0.645-1.437-1.437s0.645-1.437 1.437-1.437h2.874c0.791 0 1.437 0.645 1.437 1.437s-0.645 1.437-1.437 1.437zM18.101 7.934c-0.563 0.561-1.473 0.561-2.035 0-0.561-0.561-0.561-1.47 0-2.031l2.035-2.031c0.561-0.561 1.47-0.561 2.031 0s0.561 1.47 0 2.031l-2.031 2.031zM12 23.5c-0.796 0-1.437-0.645-1.437-1.437v-2.874c0-0.791 0.641-1.437 1.437-1.437 0.791 0 1.437 0.645 1.437 1.437v2.874c0 0.791-0.645 1.437-1.437 1.437v0zM12 6.248c-0.796 0-1.437-0.645-1.437-1.437v-2.874c0-0.791 0.641-1.437 1.437-1.437 0.791 0 1.437 0.645 1.437 1.437v2.874c0 0.796-0.645 1.437-1.437 1.437v0zM5.899 20.131c-0.561 0.561-1.47 0.561-2.031 0s-0.561-1.47 0-2.031l2.031-2.035c0.561-0.561 1.47-0.561 2.031 0s0.561 1.47 0 2.035l-2.031 2.031zM5.899 7.934l-2.035-2.031c-0.561-0.561-0.561-1.47 0-2.031s1.47-0.561 2.031 0l2.031 2.031c0.561 0.561 0.561 1.47 0 2.031-0.551 0.561-1.465 0.561-2.026 0zM6.248 12c0 0.791-0.641 1.437-1.437 1.437h-2.874c-0.796 0-1.437-0.645-1.437-1.437s0.641-1.437 1.437-1.437h2.874c0.796 0 1.437 0.641 1.437 1.437v0zM18.101 16.066l2.031 2.035c0.561 0.561 0.561 1.47 0 2.031s-1.47 0.561-2.031 0l-2.035-2.031c-0.561-0.563-0.561-1.473 0-2.035 0.561-0.561 1.47-0.561 2.035 0z"></path>
</symbol>
<symbol id="icon-arrow-down" viewBox="0 0 24 24">
<path d="M12 14.365l8.276-8.276c0.653-0.653 1.712-0.653 2.365 0s0.653 1.712 0 2.365l-9.459 9.459c-0.653 0.653-1.712 0.653-2.365 0l-9.459-9.459c-0.653-0.653-0.653-1.712 0-2.365s1.712-0.653 2.365 0l8.276 8.276z"></path>
</symbol>
<symbol id="icon-arrow-left" viewBox="0 0 23 24">
<path d="M8.536 12l8.834 8.834c0.61 0.61 0.61 1.599 0 2.209s-1.599 0.61-2.209 0l-9.938-9.938c-0.61-0.61-0.61-1.599 0-2.209l9.938-9.938c0.61-0.61 1.599-0.61 2.209 0s0.61 1.599 0 2.209l-8.834 8.834z"></path>
</symbol>
<symbol id="icon-arrow-top" viewBox="0 0 24 24">
<path d="M12 9.635l8.276 8.276c0.653 0.653 1.712 0.653 2.365 0s0.653-1.712 0-2.365l-9.459-9.459c-0.653-0.653-1.712-0.653-2.365 0l-9.459 9.459c-0.653 0.653-0.653 1.712 0 2.365s1.712 0.653 2.365 0l8.276-8.276z"></path>
</symbol>
<symbol id="icon-arrow-right" viewBox="0 0 24 24">
<path d="M14.443 12l-8.551-8.551c-0.675-0.675-0.675-1.768 0-2.443s1.768-0.675 2.443 0l9.772 9.772c0.675 0.675 0.675 1.768 0 2.443l-9.772 9.772c-0.675 0.675-1.768 0.675-2.443 0s-0.675-1.768 0-2.443l8.551-8.551z"></path>
</symbol>
<symbol id="icon-info" viewBox="0 0 24 24">
<path d="M10.467 7.323c0 0.847 0.687 1.533 1.533 1.533s1.533-0.687 1.533-1.533c0-0.847-0.686-1.533-1.533-1.533s-1.533 0.687-1.533 1.533v0z"></path>
<path d="M12 0.5c-6.363 0-11.5 5.137-11.5 11.5s5.137 11.5 11.5 11.5c6.363 0 11.5-5.137 11.5-11.5s-5.137-11.5-11.5-11.5zM12 21.967c-5.52 0-9.967-4.447-9.967-9.967s4.447-9.967 9.967-9.967c5.52 0 9.967 4.447 9.967 9.967s-4.447 9.967-9.967 9.967z"></path>
<path d="M13.073 9.93h-3.68v1.533h1.533v5.75h-1.533v1.61h5.213v-1.61h-1.533z"></path>
</symbol>
<symbol id="icon-clock" viewBox="0 0 24 24">
<path d="M12.547 13.095c0 0 0.156-0.156 0.156-0.313v-5.318c0-0.469-0.313-0.782-0.782-0.782-0.313 0-0.782 0.313-0.782 0.782v4.692l-3.285 3.285c-0.313 0.313-0.313 0.782 0 1.095 0.156 0.156 0.469 0.313 0.626 0.313s0.469-0.156 0.626-0.313l3.441-3.441zM11.922 2.615c5.318 0 9.698 4.38 9.698 9.854 0 2.503-0.938 4.692-2.346 6.413l1.721 1.721c0.626 0.626 0.626 1.721 0 2.346-0.313 0.313-0.782 0.469-1.095 0.469-0.469 0-0.782-0.156-1.095-0.469l-1.877-1.877c-1.408 0.782-2.972 1.251-4.849 1.251-1.721 0-3.441-0.469-4.849-1.251l-1.877 1.877c-0.313 0.313-0.782 0.469-1.095 0.469-0.469 0-0.782-0.156-1.095-0.469-0.626-0.626-0.626-1.721 0-2.346l1.721-1.721c-1.721-1.721-2.659-3.91-2.659-6.413 0-5.475 4.38-9.854 9.698-9.854h0zM16.927 2.146c0.626-0.939 1.721-1.564 2.972-1.564 2.033 0 3.598 1.564 3.598 3.598 0 1.251-0.626 2.19-1.408 2.816-1.251-2.033-2.972-3.754-5.162-4.849v0zM4.101 0.582c1.251 0 2.346 0.626 2.972 1.564-2.19 1.095-3.91 2.816-5.162 5.005-0.782-0.782-1.408-1.721-1.408-2.972 0-2.033 1.721-3.598 3.598-3.598z"></path>
</symbol>
<symbol id="icon-search" viewBox="0 0 24 24">
<path d="M10.79 21.268c5.678 0 10.281-4.603 10.281-10.281s-4.603-10.281-10.281-10.281c-5.678 0-10.281 4.603-10.281 10.281s4.603 10.281 10.281 10.281zM10.79 18.896c-4.368 0-7.908-3.541-7.908-7.908s3.541-7.908 7.908-7.908c4.368 0 7.908 3.541 7.908 7.908s-3.541 7.908-7.908 7.908z"></path>
<path d="M16.713 18.193l1.678-1.678 4.753 4.753c0.463 0.463 0.463 1.214 0 1.678s-1.214 0.463-1.678 0l-4.753-4.753z"></path>
</symbol>
<symbol id="icon-add" viewBox="0 0 24 24">
<path d="M20.828 0.964h-17.659c-1.46 0-2.649 1.189-2.649 2.649v14.126c0 1.46 1.189 2.649 2.649 2.649h5.814l2.391 2.391c0.172 0.172 0.397 0.258 0.626 0.258 0.225 0 0.454-0.086 0.626-0.258l2.391-2.391h5.814c1.46 0 2.649-1.189 2.649-2.649v-14.126c-0.003-1.46-1.192-2.649-2.652-2.649zM15.53 11.553h-2.649v2.649c0 0.487-0.394 0.884-0.884 0.884-0.487 0-0.884-0.394-0.884-0.884v-2.649h-2.649c-0.487 0-0.884-0.394-0.884-0.884s0.394-0.884 0.884-0.884h2.649v-2.649c0-0.487 0.394-0.884 0.884-0.884 0.487 0 0.884 0.394 0.884 0.884v2.649h2.649c0.487 0 0.884 0.394 0.884 0.884s-0.397 0.884-0.884 0.884z"></path>
</symbol>
<symbol id="icon-circle" viewBox="0 0 24 24">
<path d="M12 0.5c-6.351 0-11.5 5.149-11.5 11.5s5.149 11.5 11.5 11.5c6.351 0 11.5-5.149 11.5-11.5s-5.149-11.5-11.5-11.5zM12 22.35c-5.716 0-10.35-4.634-10.35-10.35s4.634-10.35 10.35-10.35c5.716 0 10.35 4.634 10.35 10.35s-4.634 10.35-10.35 10.35z"></path>
</symbol>
<symbol id="icon-note" viewBox="0 0 24 24">
<path d="M7.296 7.253h9.092c0.374 0 0.604-0.345 0.604-0.892s-0.23-0.892-0.604-0.892h-9.092c-0.374 0-0.604 0.345-0.604 0.892s0.23 0.892 0.604 0.892zM13.28 14.964h-5.985c-0.374 0-0.604 0.345-0.604 0.892s0.23 0.892 0.604 0.892h6.013c0.317 0 0.604-0.345 0.604-0.892-0.029-0.547-0.259-0.892-0.633-0.892zM15.956 10.216h-8.66c-0.374 0-0.604 0.345-0.604 0.892s0.23 0.892 0.604 0.892h8.66c0.317 0 0.604-0.345 0.604-0.892 0-0.518-0.23-0.892-0.604-0.892zM4.303 0.75h15.393c1.295 0 2.359 1.065 2.359 2.359v14.214c0 3.28-2.647 5.927-5.927 5.927h-11.825c-1.295 0-2.359-1.065-2.359-2.359v-17.781c0-1.295 1.065-2.359 2.359-2.359z"></path>
</symbol>
<symbol id="icon-filter" viewBox="0 0 24 24">
<path d="M13.423 23.25c-0.379 0-0.728-0.087-1.064-0.262l-2.899-1.615c-0.714-0.382-1.157-1.127-1.151-1.937v-9.197c-0.003-0.137-0.068-0.265-0.177-0.349l-6.702-5.371-0.072-0.087c-0.627-0.627-0.773-1.557-0.423-2.372 0.341-0.804 1.135-1.323 2.009-1.31h18.087c0.873 0 1.665 0.513 2.025 1.31s0.204 1.734-0.394 2.372l-0.088 0.087-6.79 5.429c-0.101 0.088-0.16 0.215-0.161 0.349v10.742c0.018 1.203-0.942 2.193-2.146 2.211h-0.055zM2.582 3.209l6.674 5.328c0.522 0.421 0.831 1.048 0.831 1.716v9.197c0 0.161 0.071 0.321 0.217 0.394l2.901 1.586c0.132 0.071 0.305 0.071 0.45 0 0.136-0.084 0.219-0.232 0.219-0.392v-10.726c0-0.67 0.293-1.295 0.818-1.72l6.689-5.382c0.1-0.135 0.116-0.315 0.042-0.466-0.073-0.151-0.226-0.247-0.394-0.248h-18.082c-0.17-0.006-0.326 0.092-0.394 0.248-0.080 0.148-0.068 0.329 0.029 0.466v-0.002zM22.414 12.349h-4.757c-0.471-0.013-0.843-0.402-0.836-0.873 0-0.481 0.375-0.873 0.836-0.873h4.757c0.46 0 0.836 0.392 0.836 0.873 0.009 0.228-0.075 0.449-0.233 0.614s-0.375 0.258-0.603 0.259v0zM22.414 15.703h-4.757c-0.471-0.013-0.843-0.402-0.836-0.873 0-0.482 0.375-0.874 0.836-0.874h4.757c0.46 0 0.836 0.394 0.836 0.874 0.009 0.228-0.075 0.449-0.233 0.614s-0.375 0.258-0.603 0.259v0zM22.414 19.057h-4.757c-0.471-0.013-0.844-0.403-0.836-0.874 0-0.479 0.375-0.873 0.836-0.873h4.757c0.46 0 0.836 0.394 0.836 0.873 0.007 0.227-0.078 0.448-0.235 0.612s-0.374 0.259-0.601 0.262v0z"></path>
</symbol>
<symbol id="icon-edit" viewBox="0 0 24 24">
<path d="M21.69 20.792h-19.38c-0.495-0-0.952 0.258-1.199 0.677s-0.247 0.935 0 1.354c0.247 0.419 0.704 0.677 1.199 0.677h19.38c0.764-0 1.384-0.606 1.384-1.354s-0.62-1.354-1.384-1.354v0zM3.39 18.673h2.609c0.392-0.001 0.768-0.155 1.045-0.427l10.216-9.966c0.078-0.075 0.122-0.177 0.122-0.284s-0.044-0.209-0.122-0.284l-3.336-3.263c-0.077-0.076-0.181-0.119-0.291-0.119s-0.214 0.043-0.291 0.119l-10.209 9.966c-0.278 0.271-0.435 0.638-0.436 1.022v2.552c-0.002 0.181 0.070 0.355 0.2 0.483s0.307 0.201 0.492 0.201zM18.728 6.277c0.077 0.076 0.181 0.119 0.291 0.119s0.214-0.043 0.291-0.119l1.197-1.171c0.543-0.527 0.839-1.249 0.818-1.997s-0.357-1.453-0.929-1.95c-1.157-0.951-2.87-0.862-3.917 0.203l-1.087 1.083c-0.078 0.075-0.122 0.177-0.122 0.284s0.044 0.209 0.122 0.284l3.336 3.263z"></path>
</symbol>
<symbol id="icon-tag-group" viewBox="0 0 24 24">
<path d="M18.781 13.669c0-0.419-0.14-0.779-0.439-1.099l-8.568-8.548c-0.3-0.3-0.718-0.559-1.219-0.779-0.52-0.221-0.977-0.32-1.399-0.32h-4.991c-0.419 0-0.779 0.16-1.079 0.459s-0.459 0.66-0.459 1.079v4.973c0 0.419 0.099 0.899 0.32 1.399 0.221 0.52 0.459 0.919 0.779 1.219l8.568 8.568c0.3 0.3 0.66 0.439 1.079 0.439s0.779-0.14 1.099-0.439l5.872-5.872c0.277-0.3 0.437-0.66 0.437-1.079v0zM5.539 7.856c-0.3 0.3-0.66 0.439-1.079 0.439s-0.779-0.14-1.079-0.439c-0.3-0.3-0.439-0.66-0.439-1.079s0.14-0.779 0.439-1.079c0.3-0.3 0.66-0.439 1.079-0.439s0.779 0.14 1.079 0.439c0.3 0.3 0.439 0.66 0.439 1.079 0.020 0.421-0.14 0.779-0.439 1.079zM22.934 12.57l-8.568-8.548c-0.3-0.3-0.718-0.559-1.219-0.779-0.52-0.221-0.977-0.32-1.399-0.32h-2.694c0.419 0 0.899 0.099 1.399 0.32 0.52 0.221 0.919 0.459 1.219 0.779l8.568 8.548c0.3 0.32 0.439 0.678 0.439 1.099s-0.14 0.779-0.439 1.079l-5.613 5.631c0.239 0.239 0.459 0.419 0.64 0.538s0.419 0.16 0.698 0.16c0.419 0 0.779-0.14 1.099-0.439l5.87-5.89c0.3-0.3 0.439-0.66 0.439-1.079s-0.14-0.779-0.439-1.099z"></path>
</symbol>
<symbol id="icon-location" viewBox="0 0 24 24">
<path d="M12 0.5c-4.827 0-8.739 4.131-8.739 9.226 0 5.096 5.796 13.774 8.739 13.774 2.969 0 8.739-8.678 8.739-13.774s-3.912-9.226-8.739-9.226v0zM12 14.351c-2.419 0-4.38-2.072-4.38-4.625s1.961-4.624 4.38-4.624c2.419 0 4.38 2.070 4.38 4.624s-1.961 4.626-4.38 4.626v0z"></path>
</symbol>
<symbol id="icon-check" viewBox="0 0 24 24">
<path d="M8.663 15.337l12.014-12.014 2.67 2.67-14.683 14.683-8.009-8.009 2.67-2.67z"></path>
</symbol>
<symbol id="icon-tag" viewBox="0 0 24 24">
<path d="M9.314 0.5c2.242-0.005 3.549 1.288 5.359 3.075l8.019 8.162c0.513 0.499 0.808 1.216 0.808 1.973 0 0.752-0.291 1.465-0.798 1.955l-7.273 7.1c-1.007 0.978-2.924 0.982-3.935-0.005l-9.037-8.86c-1.562-1.518-1.957-2.124-1.957-4.183v-3.899c0-3.677 0.746-5.32 5.167-5.32h3.647zM6.837 4.256c-1.421 0-2.581 1.16-2.581 2.581 0 1.423 1.16 2.583 2.581 2.583 1.423 0 2.583-1.16 2.583-2.583 0-1.421-1.16-2.581-2.583-2.581z"></path>
</symbol>
<symbol id="icon-check-outcircle" viewBox="0 0 24 24">
<path d="M12 0.5c-6.351 0-11.5 5.149-11.5 11.5s5.149 11.5 11.5 11.5c6.351 0 11.5-5.149 11.5-11.5s-5.149-11.5-11.5-11.5zM18.088 8.954l-7.294 7.373c-0.002 0.002-0.005 0.003-0.007 0.005s-0.003 0.005-0.005 0.007c-0.058 0.056-0.13 0.091-0.198 0.129-0.034 0.019-0.061 0.048-0.097 0.062-0.109 0.044-0.225 0.066-0.341 0.066s-0.234-0.023-0.344-0.068c-0.036-0.015-0.066-0.047-0.1-0.066-0.067-0.038-0.138-0.072-0.196-0.129-0.002-0.002-0.003-0.005-0.005-0.007s-0.005-0.003-0.007-0.005l-3.587-3.686c-0.351-0.361-0.342-0.937 0.018-1.288s0.936-0.343 1.288 0.018l2.939 3.021 6.64-6.713c0.353-0.358 0.931-0.362 1.288-0.007 0.356 0.354 0.36 0.931 0.006 1.289z"></path>
</symbol>
<symbol id="icon-triangle-down" viewBox="0 0 24 24">
<path d="M3.079 4.464h17.843c1.288 0 2.332 1.044 2.332 2.332 0 0.557-0.199 1.095-0.561 1.518l-8.921 10.408c-0.838 0.978-2.31 1.091-3.288 0.253-0.091-0.078-0.175-0.162-0.253-0.253l-8.921-10.408c-0.838-0.978-0.725-2.45 0.253-3.288 0.423-0.362 0.961-0.561 1.518-0.561z"></path>
</symbol>
<symbol id="icon-phone" viewBox="0 0 24 24">
<path d="M18.178 0.5h-12.348c-1.014 0-1.832 0.861-1.832 1.917v19.165c0 1.057 0.818 1.917 1.832 1.917h12.348c1.006 0 1.824-0.861 1.824-1.917v-19.165c0-1.057-0.818-1.917-1.824-1.917v0zM12 21.837c-1.017 0-1.84-0.865-1.84-1.935 0-1.058 0.824-1.923 1.84-1.923s1.84 0.865 1.84 1.923c-0 1.070-0.824 1.935-1.84 1.935zM17.719 15.737c0 0.588-0.452 1.056-1.006 1.056h-9.425c-0.554 0-1.006-0.468-1.006-1.056v-11.786c0-0.588 0.452-1.057 1.006-1.057h9.425c0.555 0 1.006 0.469 1.006 1.057v11.786z"></path>
</symbol>
<symbol id="icon-enterprise-wechat" viewBox="0 0 28 24">
<path d="M18.642 18.686c-0.078 0.078-0.118 0.186-0.109 0.296s0.066 0.21 0.156 0.274c0.81 0.759 1.332 1.775 1.475 2.876 0.207 0.759 0.947 1.246 1.726 1.134s1.353-0.787 1.338-1.573c-0.015-0.787-0.614-1.439-1.397-1.521-1.025-0.192-1.96-0.713-2.661-1.485-0.146-0.145-0.382-0.145-0.528 0z"></path>
<path d="M24.974 16.216c-0.253 0.252-0.411 0.583-0.448 0.939-0.189 1.026-0.709 1.962-1.48 2.666-0.104 0.099-0.141 0.249-0.097 0.385s0.163 0.235 0.305 0.255c0.142 0.019 0.283-0.044 0.362-0.164 0.759-0.81 1.775-1.332 2.876-1.475 0.633-0.171 1.091-0.72 1.146-1.373s-0.303-1.271-0.898-1.547c-0.595-0.276-1.299-0.15-1.761 0.315h-0.005z"></path>
<path d="M20.58 11.818c-0.424 0.425-0.566 1.056-0.366 1.622s0.708 0.967 1.305 1.030c1.026 0.189 1.962 0.709 2.666 1.48 0.099 0.104 0.249 0.141 0.385 0.097s0.235-0.163 0.255-0.305c0.019-0.142-0.044-0.283-0.164-0.362-0.81-0.759-1.332-1.775-1.475-2.876-0.148-0.535-0.569-0.95-1.106-1.092s-1.108 0.013-1.5 0.405v0z"></path>
<path d="M19.814 14.255l-0.028 0.028c-0.761 0.838-1.795 1.379-2.918 1.527-0.539 0.142-0.961 0.563-1.104 1.102s0.015 1.113 0.413 1.504c0.425 0.424 1.056 0.566 1.622 0.366s0.967-0.708 1.030-1.305c0.191-1.027 0.712-1.963 1.485-2.666 0.153-0.138 0.166-0.374 0.028-0.528s-0.374-0.166-0.528-0.028z"></path>
<path d="M10.392 0.794c-2.797 0.308-5.332 1.503-7.153 3.371-0.724 0.738-1.312 1.569-1.746 2.456-1.379 2.776-1.149 6.080 0.602 8.638 0.495 0.747 1.307 1.681 2.050 2.344l-0.336 2.643-0.037 0.112c-0.009 0.033-0.009 0.070-0.014 0.103l-0.009 0.084 0.009 0.084c0.025 0.291 0.198 0.549 0.458 0.683s0.57 0.125 0.822-0.024h0.014l0.051-0.037 0.803-0.402 2.395-1.205c1.138 0.327 2.318 0.489 3.502 0.481 1.464 0.003 2.918-0.25 4.296-0.747-0.691-0.228-1.131-0.905-1.060-1.629-1.425 0.458-2.93 0.608-4.417 0.439l-0.238-0.033c-0.537-0.070-1.068-0.181-1.588-0.331-0.283-0.088-0.591-0.056-0.85 0.089l-0.065 0.033-2.054 1.209c-0.047 0.028-0.070 0.037-0.093 0.037-0.073-0.005-0.129-0.067-0.126-0.14l0.075-0.304 0.089-0.332 0.14-0.546 0.163-0.607c0.109-0.339-0.011-0.71-0.299-0.92-0.774-0.575-1.447-1.276-1.989-2.073-1.384-2.013-1.57-4.618-0.486-6.808 0.355-0.71 0.822-1.368 1.401-1.961 1.494-1.541 3.595-2.521 5.92-2.773 0.804-0.089 1.615-0.089 2.419 0 2.311 0.266 4.403 1.261 5.888 2.792 0.574 0.593 1.041 1.261 1.387 1.97 0.462 0.943 0.696 1.942 0.696 2.965 0 0.107-0.009 0.215-0.014 0.318 0.613-0.377 1.405-0.285 1.914 0.224l0.070 0.084c0.12-1.525-0.174-3.054-0.85-4.426-0.442-0.905-1.026-1.734-1.728-2.456-1.911-1.921-4.429-3.121-7.125-3.394-0.959-0.109-1.926-0.112-2.886-0.009z"></path>
</symbol>
<symbol id="icon-cancel" viewBox="0 0 24 24">
<path d="M23.5 3.142l-8.859 8.858 8.859 8.859-2.642 2.642-8.858-8.859-8.858 8.859-2.642-2.642 8.859-8.859-8.859-8.858 2.642-2.642 8.858 8.858 8.858-8.858 2.642 2.642z"></path>
</symbol>
<symbol id="icon-link" viewBox="0 0 24 24">
<path d="M10.357 14.834c-0.288 0-0.616-0.123-0.862-0.37-2.177-2.177-2.177-5.75 0-7.927l4.436-4.395c1.068-1.068 2.464-1.643 3.984-1.643 1.479 0 2.875 0.575 3.943 1.643 2.177 2.177 2.177 5.75 0 7.927l-2.012 2.012c-0.452 0.452-1.232 0.452-1.684 0s-0.452-1.232 0-1.684l2.012-2.012c1.273-1.273 1.273-3.286 0-4.559-0.616-0.616-1.437-0.945-2.259-0.945-0.862 0-1.684 0.329-2.259 0.945l-4.477 4.436c-1.273 1.273-1.273 3.286 0 4.559 0.452 0.452 0.452 1.232 0 1.684-0.205 0.205-0.534 0.329-0.821 0.329z"></path>
<path d="M6.127 23.5c-1.52 0-2.916-0.575-3.984-1.643-2.177-2.177-2.177-5.75 0-7.927l2.012-2.012c0.452-0.452 1.232-0.452 1.684 0s0.452 1.232 0 1.684l-2.012 2.012c-1.273 1.273-1.273 3.286 0 4.559 0.616 0.616 1.437 0.945 2.259 0.945s1.684-0.329 2.259-0.945l4.477-4.436c1.273-1.273 1.273-3.286 0-4.559-0.452-0.452-0.452-1.232 0-1.684s1.232-0.452 1.684 0c2.177 2.177 2.177 5.75 0 7.927l-4.436 4.436c-1.068 1.068-2.464 1.643-3.943 1.643z"></path>
</symbol>
<symbol id="icon-female" viewBox="0 0 24 24">
<path d="M0.849 23.5h22.302c0-4.899-4.782-6.524-11.151-6.524s-11.151 1.636-11.151 6.524z"></path>
<path d="M12 16.005c-3.27 0-5.777-0.223-7.521-0.67 0.666-0.41 1.316-0.867 1.73-1.901-0.943 0.586-2.020 0.688-3.216 0.346 1.57-0.852 2.516-2.973 3.123-8.050 0.223-1.86 0.968-3.425 1.646-3.993 1.875-1.575 5.733-1.643 7.635-0.217 1.146 0.86 2.214 4.522 2.262 7.39 0.238 3.599-0.141 4.068 1.517 6.012 0 0-2.272 1.083-7.177 1.083z"></path>
</symbol>
<symbol id="icon-cancel-outcircle" viewBox="0 0 24 24">
<path d="M20.11 3.888c-2.169-2.169-5.111-3.388-8.179-3.388s-6.010 1.219-8.179 3.388c-4.386 4.54-4.325 11.757 0.138 16.222s11.681 4.527 16.222 0.142c2.17-2.17 3.388-5.113 3.388-8.182s-1.22-6.011-3.391-8.18l0.002-0.002zM16.971 15.694c0.364 0.395 0.351 1.006-0.028 1.386s-0.991 0.392-1.386 0.028l-3.631-3.624-3.622 3.624c-0.395 0.364-1.006 0.351-1.386-0.028s-0.392-0.991-0.028-1.386l3.627-3.624-3.627-3.625c-0.364-0.395-0.351-1.006 0.028-1.386s0.991-0.392 1.386-0.028l3.622 3.625 3.627-3.627c0.395-0.364 1.006-0.351 1.386 0.028s0.392 0.991 0.028 1.386l-3.625 3.627 3.629 3.624z"></path>
</symbol>
<symbol id="icon-share-outcircle" viewBox="0 0 24 24">
<path d="M12 0.5c-6.351 0-11.5 5.149-11.5 11.5s5.149 11.5 11.5 11.5c6.351 0 11.5-5.149 11.5-11.5s-5.149-11.5-11.5-11.5zM16.246 19.167c0 0-6.281-0.744-6.956-7.198h-2.949l5.439-7.136 5.368 7.136h-3.296c-0.028 1.879 0.146 6.322 2.395 7.198z"></path>
</symbol>
<symbol id="icon-male" viewBox="0 0 24 24">
<path d="M12 16.932c6.412 0 11.226 1.637 11.226 6.568v0h-22.452c0-4.921 4.814-6.568 11.226-6.568zM12 0.5c4.005 0 2.893 1.183 5.851 1.415-0.065 1.050-1.047 1.614-1.047 1.614 0.799 0.818 1.198 2.388 1.198 4.368l-0.011 0.265c0.486 0.133 0.842 0.52 0.842 1.062 0 1.272-1.22 3.185-1.9 3.35-0.982 1.99-2.623 3.527-4.933 3.527-2.321 0-3.962-1.537-4.933-3.527-0.691-0.166-1.911-2.079-1.911-3.35 0-0.553 0.356-0.929 0.842-1.062 0-0.088-0.011-0.177-0.011-0.265 0-3.627 1.198-7.398 6.012-7.398z"></path>
</symbol>
<symbol id="icon-spinner" viewBox="0 0 24 24">
<path d="M12 24c-3.205 0-6.219-1.248-8.485-3.515s-3.515-5.28-3.515-8.485c0-2.27 0.637-4.48 1.842-6.391 1.172-1.858 2.828-3.36 4.79-4.343l1.008 2.012c-1.595 0.799-2.941 2.020-3.894 3.531-0.978 1.552-1.496 3.347-1.496 5.191 0 5.376 4.374 9.75 9.75 9.75s9.75-4.374 9.75-9.75c0-1.844-0.517-3.639-1.496-5.191-0.953-1.511-2.3-2.732-3.894-3.531l1.008-2.012c1.962 0.983 3.618 2.484 4.79 4.343 1.205 1.912 1.842 4.122 1.842 6.391 0 3.205-1.248 6.219-3.515 8.485s-5.28 3.515-8.485 3.515z"></path>
</symbol>
</defs>
</svg>
