<svg aria-hidden="true" style="position: absolute; width: 0; height: 0; overflow: hidden;" version="1.1" xmlns="http://www.w3.org/2000/svg" xmlns:xlink="http://www.w3.org/1999/xlink">
<defs>
<symbol id="icon-question" viewBox="0 0 32 32">
<path d="M16 4.040c-6.605 0-11.96 5.355-11.96 11.96s5.355 11.96 11.96 11.96c6.605 0 11.96-5.355 11.96-11.96s-5.355-11.96-11.96-11.96zM16 0.667c8.468 0 15.333 6.865 15.333 15.333s-6.865 15.333-15.333 15.333c-8.468 0-15.333-6.865-15.333-15.333s6.865-15.333 15.333-15.333z"></path>
<path d="M16.008 25.723c-1.197 0-2.174-0.941-2.174-2.109s0.976-2.109 2.174-2.109c1.197 0 2.174 0.941 2.174 2.109s-0.976 2.109-2.174 2.109zM18.828 16.928c-0.426 0.331-0.783 0.741-1.022 1.135-0.203 0.387-0.389 2.044-1.877 2.044-0.992 0-1.559-0.372-1.7-1.116-0.025-0.827 0.133-1.649 0.483-2.44 0.465-0.788 1.069-1.474 1.774-2.014 0.526-0.421 1.020-0.886 1.451-1.358 0.198-0.272 0.305-0.609 0.303-0.959 0.001-0.489-0.203-0.951-0.551-1.259-0.428-0.379-0.969-0.575-1.541-0.553-0.557-0.007-1.099 0.195-1.504 0.545-0.47 0.507-0.792 1.152-0.918 1.782 0 0.679-0.733 1.409-1.822 1.293-1.135-0.12-1.626-0.731-1.612-1.66 0.085-1.394 0.698-2.694 1.697-3.598 1.112-1.036 2.547-1.597 3.999-1.572 1.542-0.086 3.058 0.445 4.252 1.492 0.977 0.881 1.534 2.176 1.523 3.521 0.018 0.749-0.167 1.487-0.553 2.158-0.679 0.965-1.481 1.826-2.381 2.559z"></path>
</symbol>
<symbol id="icon-setting" viewBox="0 0 32 32">
<path d="M15.614 4.457l-9.417 5.437c-0.239 0.138-0.386 0.393-0.386 0.669v10.873c0 0.276 0.147 0.531 0.386 0.669l9.417 5.437c0.239 0.138 0.534 0.138 0.773 0l9.417-5.437c0.239-0.138 0.386-0.393 0.386-0.669v-10.873c0-0.276-0.147-0.531-0.386-0.669l-9.417-5.437c-0.239-0.138-0.534-0.138-0.773 0zM17.159 0.977l11.271 6.508c0.717 0.414 1.159 1.179 1.159 2.008v13.015c0 0.828-0.442 1.594-1.159 2.008l-11.271 6.508c-0.717 0.414-1.601 0.414-2.318 0l-11.271-6.508c-0.717-0.414-1.159-1.179-1.159-2.008v-13.015c0-0.828 0.442-1.594 1.159-2.008l11.271-6.508c0.717-0.414 1.601-0.414 2.318 0z"></path>
<path d="M15.934 19.318c1.75 0 3.168-1.419 3.168-3.168s-1.419-3.168-3.168-3.168c-1.75 0-3.168 1.419-3.168 3.168s1.419 3.168 3.168 3.168zM15.934 22.718c-3.628 0-6.569-2.941-6.569-6.569s2.941-6.569 6.569-6.569c3.628 0 6.569 2.941 6.569 6.569s-2.941 6.569-6.569 6.569z"></path>
</symbol>
<symbol id="icon-download" viewBox="0 0 32 32">
<path d="M10.5 15.873l5.184 5.297c0.119 0.122 0.315 0.124 0.437 0.005 0.001-0.001 0.002-0.002 0.002-0.002l5.297-5.297c0.121-0.121 0.121-0.316 0-0.437-0.058-0.058-0.136-0.090-0.218-0.090h-2.36c-0.171 0-0.309-0.138-0.309-0.309v-10.668c0-0.17-0.138-0.309-0.309-0.309h-4.537c-0.171 0-0.309 0.138-0.309 0.309v10.668c0 0.171-0.138 0.309-0.309 0.309h-2.348c-0.171 0-0.309 0.138-0.309 0.309 0 0.081 0.032 0.158 0.088 0.216zM9.981 11.952v-9.742c0-0.853 0.691-1.544 1.544-1.544h8.86c0.853 0 1.544 0.691 1.544 1.544v9.742h4.491c0.853 0 1.544 0.691 1.544 1.544 0 0.409-0.163 0.802-0.452 1.091l-10.53 10.53c-0.603 0.603-1.58 0.603-2.183 0-0.003-0.003-3.442-3.517-10.319-10.542-0.596-0.609-0.586-1.587 0.023-2.183 0.288-0.282 0.676-0.44 1.080-0.44h4.4z"></path>
<path d="M5.908 27.937h20.067c0.853 0 1.544 0.691 1.544 1.544v0.309c0 0.853-0.691 1.544-1.544 1.544h-20.067c-0.853 0-1.544-0.691-1.544-1.544v-0.309c0-0.853 0.691-1.544 1.544-1.544z"></path>
</symbol>
<symbol id="icon-message" viewBox="0 0 32 32">
<path d="M16 28.267c6.775 0 12.267-5.492 12.267-12.267s-5.492-12.267-12.267-12.267c-6.775 0-12.267 5.492-12.267 12.267v12.267h12.267zM16 31.333h-12.545c-1.54 0-2.788-1.248-2.788-2.788v-12.545c0-8.468 6.865-15.333 15.333-15.333s15.333 6.865 15.333 15.333c0 8.468-6.865 15.333-15.333 15.333z"></path>
<path d="M10.564 11.818h10.176c0.847 0 1.533 0.687 1.533 1.533s-0.686 1.533-1.533 1.533h-10.176c-0.847 0-1.533-0.687-1.533-1.533s0.687-1.533 1.533-1.533z"></path>
<path d="M12.655 18.091h5.994c0.847 0 1.533 0.686 1.533 1.533s-0.686 1.533-1.533 1.533h-5.994c-0.847 0-1.533-0.686-1.533-1.533s0.687-1.533 1.533-1.533z"></path>
</symbol>
<symbol id="icon-add" viewBox="0 0 32 32">
<path d="M27.771 1.285h-23.545c-1.947 0-3.532 1.585-3.532 3.532v18.835c0 1.947 1.585 3.532 3.532 3.532h7.752l3.188 3.188c0.229 0.229 0.529 0.344 0.835 0.344 0.3 0 0.605-0.115 0.835-0.344l3.188-3.188h7.752c1.947 0 3.532-1.585 3.532-3.532v-18.835c-0.004-1.947-1.589-3.532-3.536-3.532zM20.707 15.403h-3.532v3.532c0 0.649-0.525 1.179-1.179 1.179-0.649 0-1.179-0.525-1.179-1.179v-3.532h-3.532c-0.649 0-1.179-0.525-1.179-1.179s0.525-1.179 1.179-1.179h3.532v-3.532c0-0.649 0.525-1.179 1.179-1.179 0.649 0 1.179 0.525 1.179 1.179v3.532h3.532c0.649 0 1.179 0.525 1.179 1.179s-0.529 1.179-1.179 1.179z"></path>
</symbol>
<symbol id="icon-arrow-down" viewBox="0 0 32 32">
<path d="M16.001 19.152l11.034-11.034c0.871-0.871 2.283-0.871 3.153 0s0.871 2.283 0 3.153l-12.611 12.611c-0.871 0.871-2.283 0.871-3.153 0l-12.611-12.611c-0.871-0.871-0.871-2.283 0-3.153s2.283-0.871 3.153 0l11.034 11.034z"></path>
</symbol>
<symbol id="icon-arrow-left" viewBox="0 0 32 32">
<path d="M12.319 15.999l11.779 11.779c0.813 0.813 0.813 2.132 0 2.945s-2.132 0.813-2.945 0l-13.251-13.251c-0.813-0.813-0.813-2.132 0-2.945l13.251-13.251c0.813-0.813 2.132-0.813 2.945 0s0.813 2.132 0 2.945l-11.779 11.779z"></path>
</symbol>
<symbol id="icon-arrow-right" viewBox="0 0 32 32">
<path d="M19.258 16.001l-11.402-11.402c-0.9-0.9-0.9-2.357 0-3.257s2.357-0.9 3.257 0l13.030 13.030c0.9 0.9 0.9 2.357 0 3.257l-13.030 13.030c-0.9 0.9-2.357 0.9-3.257 0s-0.9-2.357 0-3.257l11.402-11.402z"></path>
</symbol>
<symbol id="icon-arrow-top" viewBox="0 0 32 32">
<path d="M16.001 12.848l11.034 11.034c0.871 0.871 2.283 0.871 3.153 0s0.871-2.283 0-3.153l-12.611-12.611c-0.871-0.871-2.283-0.871-3.153 0l-12.611 12.611c-0.871 0.871-0.871 2.283 0 3.153s2.283 0.871 3.153 0l11.034-11.034z"></path>
</symbol>
<symbol id="icon-cancel" viewBox="0 0 32 32">
<path d="M31.333 4.189l-11.812 11.81 11.812 11.811-3.523 3.523-11.81-11.812-11.81 11.812-3.522-3.523 11.812-11.812-11.812-11.81 3.522-3.522 11.81 11.81 11.81-11.81 3.523 3.522z"></path>
</symbol>
<symbol id="icon-cancel-outcircle" viewBox="0 0 32 32">
<path d="M26.812 5.184c-2.892-2.892-6.815-4.517-10.905-4.517s-8.013 1.625-10.905 4.517c-5.848 6.053-5.767 15.676 0.184 21.629s15.575 6.036 21.629 0.189c2.893-2.893 4.517-6.817 4.517-10.909s-1.627-8.015-4.521-10.907l0.003-0.003zM22.626 20.925c0.485 0.527 0.468 1.341-0.037 1.848s-1.321 0.523-1.848 0.037l-4.841-4.832-4.829 4.832c-0.527 0.485-1.341 0.468-1.848-0.037s-0.523-1.321-0.037-1.848l4.836-4.832-4.836-4.833c-0.485-0.527-0.468-1.341 0.037-1.848s1.321-0.523 1.848-0.037l4.829 4.833 4.836-4.836c0.527-0.485 1.341-0.468 1.848 0.037s0.523 1.321 0.037 1.848l-4.833 4.836 4.839 4.832z"></path>
</symbol>
<symbol id="icon-check" viewBox="0 0 32 32">
<path d="M11.549 20.45l16.019-16.019 3.56 3.56-19.578 19.578-10.679-10.679 3.56-3.56z"></path>
</symbol>
<symbol id="icon-check-outcircle" viewBox="0 0 32 32">
<path d="M16 0.667c-8.468 0-15.333 6.865-15.333 15.333s6.865 15.333 15.333 15.333c8.468 0 15.333-6.865 15.333-15.333s-6.865-15.333-15.333-15.333zM24.117 11.939l-9.725 9.831c-0.003 0.003-0.007 0.004-0.009 0.007s-0.004 0.007-0.007 0.009c-0.077 0.075-0.173 0.121-0.264 0.172-0.045 0.025-0.081 0.064-0.129 0.083-0.145 0.059-0.3 0.088-0.455 0.088s-0.312-0.031-0.459-0.091c-0.048-0.020-0.088-0.063-0.133-0.088-0.089-0.051-0.184-0.096-0.261-0.172-0.003-0.003-0.004-0.007-0.007-0.009s-0.007-0.004-0.009-0.007l-4.783-4.915c-0.468-0.481-0.456-1.249 0.024-1.717s1.248-0.457 1.717 0.024l3.919 4.028 8.853-8.951c0.471-0.477 1.241-0.483 1.717-0.009 0.475 0.472 0.48 1.241 0.008 1.719z"></path>
</symbol>
<symbol id="icon-circle" viewBox="0 0 32 32">
<path d="M16 0.667c-8.468 0-15.333 6.865-15.333 15.333s6.865 15.333 15.333 15.333c8.468 0 15.333-6.865 15.333-15.333s-6.865-15.333-15.333-15.333zM16 29.8c-7.621 0-13.8-6.179-13.8-13.8s6.179-13.8 13.8-13.8c7.621 0 13.8 6.179 13.8 13.8s-6.179 13.8-13.8 13.8z"></path>
</symbol>
<symbol id="icon-clock" viewBox="0 0 32 32">
<path d="M16.729 17.461c0 0 0.208-0.208 0.208-0.417v-7.090c0-0.625-0.417-1.043-1.043-1.043-0.417 0-1.043 0.417-1.043 1.043v6.256l-4.38 4.38c-0.417 0.417-0.417 1.043 0 1.46 0.208 0.208 0.625 0.417 0.835 0.417s0.625-0.208 0.835-0.417l4.588-4.588zM15.896 3.488c7.090 0 12.93 5.84 12.93 13.138 0 3.337-1.251 6.256-3.128 8.55l2.295 2.295c0.835 0.835 0.835 2.295 0 3.128-0.417 0.417-1.043 0.625-1.46 0.625-0.625 0-1.043-0.208-1.46-0.625l-2.503-2.503c-1.877 1.043-3.962 1.668-6.465 1.668-2.295 0-4.588-0.625-6.465-1.668l-2.503 2.503c-0.417 0.417-1.043 0.625-1.46 0.625-0.625 0-1.043-0.208-1.46-0.625-0.835-0.835-0.835-2.295 0-3.128l2.295-2.295c-2.295-2.295-3.545-5.213-3.545-8.55 0-7.3 5.84-13.138 12.93-13.138v0zM22.569 2.862c0.835-1.252 2.295-2.085 3.962-2.085 2.711 0 4.797 2.085 4.797 4.797 0 1.668-0.835 2.92-1.877 3.755-1.668-2.711-3.962-5.005-6.882-6.465v0zM5.468 0.777c1.668 0 3.128 0.835 3.962 2.085-2.92 1.46-5.213 3.755-6.882 6.673-1.043-1.043-1.877-2.295-1.877-3.963 0-2.711 2.295-4.797 4.797-4.797z"></path>
</symbol>
<symbol id="icon-edit" viewBox="0 0 32 32">
<path d="M28.92 27.723h-25.841c-0.66 0-1.269 0.344-1.599 0.903s-0.329 1.247 0 1.805c0.329 0.559 0.939 0.903 1.599 0.903h25.841c1.019 0 1.845-0.808 1.845-1.805s-0.827-1.805-1.845-1.805v0zM4.52 24.897h3.479c0.523-0.001 1.024-0.207 1.393-0.569l13.622-13.288c0.104-0.1 0.163-0.236 0.163-0.379s-0.059-0.279-0.163-0.379l-4.448-4.351c-0.103-0.101-0.241-0.159-0.388-0.159s-0.285 0.057-0.388 0.159l-13.612 13.288c-0.371 0.361-0.58 0.851-0.581 1.363v3.403c-0.003 0.241 0.093 0.473 0.267 0.644s0.409 0.268 0.656 0.268zM24.971 8.369c0.103 0.101 0.241 0.159 0.388 0.159s0.285-0.057 0.388-0.159l1.596-1.561c0.724-0.703 1.119-1.665 1.091-2.663s-0.476-1.937-1.239-2.6c-1.543-1.268-3.827-1.149-5.223 0.271l-1.449 1.444c-0.104 0.1-0.163 0.236-0.163 0.379s0.059 0.279 0.163 0.379l4.448 4.351z"></path>
</symbol>
<symbol id="icon-female" viewBox="0 0 32 32">
<path d="M1.132 31.333h29.737c0-6.532-6.376-8.699-14.868-8.699s-14.868 2.181-14.868 8.699z"></path>
<path d="M16 21.34c-4.36 0-7.703-0.297-10.028-0.893 0.888-0.547 1.755-1.156 2.307-2.535-1.257 0.781-2.693 0.917-4.288 0.461 2.093-1.136 3.355-3.964 4.164-10.734 0.297-2.48 1.291-4.567 2.195-5.324 2.5-2.1 7.644-2.191 10.18-0.289 1.528 1.147 2.952 6.030 3.016 9.854 0.317 4.799-0.188 5.424 2.023 8.016 0 0-3.029 1.444-9.57 1.444z"></path>
</symbol>
<symbol id="icon-filter" viewBox="0 0 32 32">
<path d="M17.939 31.332c-0.517 0-0.992-0.119-1.45-0.357l-3.951-2.201c-0.973-0.521-1.577-1.536-1.569-2.64v-12.534c-0.004-0.187-0.093-0.361-0.241-0.476l-9.134-7.32-0.098-0.119c-0.855-0.855-1.053-2.122-0.577-3.233 0.465-1.096 1.547-1.803 2.738-1.785h24.65c1.19 0 2.269 0.699 2.76 1.785s0.278 2.363-0.537 3.233l-0.12 0.119-9.254 7.399c-0.138 0.12-0.218 0.293-0.219 0.476v14.64c0.025 1.64-1.284 2.989-2.925 3.013h-0.075zM3.165 4.019l9.096 7.261c0.711 0.574 1.133 1.428 1.133 2.339v12.534c0 0.219 0.097 0.437 0.296 0.537l3.954 2.162c0.18 0.097 0.416 0.097 0.613 0 0.185-0.114 0.298-0.316 0.298-0.534v-14.618c0-0.913 0.399-1.765 1.115-2.344l9.116-7.335c0.136-0.184 0.158-0.429 0.057-0.635-0.099-0.206-0.308-0.337-0.537-0.338h-24.643c-0.232-0.008-0.444 0.125-0.537 0.338-0.109 0.202-0.093 0.448 0.039 0.635v-0.003zM30.193 16.476h-6.483c-0.642-0.018-1.149-0.548-1.139-1.19 0-0.656 0.511-1.19 1.139-1.19h6.483c0.627 0 1.139 0.534 1.139 1.19 0.012 0.311-0.102 0.612-0.318 0.837s-0.511 0.352-0.822 0.353v0zM30.193 21.047h-6.483c-0.642-0.018-1.149-0.548-1.139-1.19 0-0.657 0.511-1.191 1.139-1.191h6.483c0.627 0 1.139 0.537 1.139 1.191 0.012 0.311-0.102 0.612-0.318 0.837s-0.511 0.352-0.822 0.353v0zM30.193 25.618h-6.483c-0.642-0.018-1.15-0.549-1.139-1.191 0-0.653 0.511-1.19 1.139-1.19h6.483c0.627 0 1.139 0.537 1.139 1.19 0.010 0.309-0.106 0.611-0.32 0.834s-0.51 0.353-0.819 0.357v0z"></path>
</symbol>
<symbol id="icon-info" viewBox="0 0 32 32">
<path d="M13.956 9.764c0 1.129 0.916 2.044 2.044 2.044s2.044-0.916 2.044-2.044c0-1.129-0.915-2.044-2.044-2.044s-2.044 0.916-2.044 2.044v0z"></path>
<path d="M16 0.667c-8.484 0-15.333 6.849-15.333 15.333s6.849 15.333 15.333 15.333c8.484 0 15.333-6.849 15.333-15.333s-6.849-15.333-15.333-15.333zM16 29.289c-7.36 0-13.289-5.929-13.289-13.289s5.929-13.289 13.289-13.289c7.36 0 13.289 5.929 13.289 13.289s-5.929 13.289-13.289 13.289z"></path>
<path d="M17.431 13.24h-4.907v2.044h2.044v7.667h-2.044v2.147h6.951v-2.147h-2.044z"></path>
</symbol>
<symbol id="icon-link" viewBox="0 0 32 32">
<path d="M13.809 19.779c-0.384 0-0.821-0.164-1.149-0.493-2.903-2.903-2.903-7.666 0-10.569l5.914-5.86c1.424-1.424 3.285-2.191 5.312-2.191 1.972 0 3.833 0.767 5.257 2.191 2.903 2.903 2.903 7.666 0 10.569l-2.683 2.683c-0.603 0.603-1.643 0.603-2.245 0s-0.603-1.643 0-2.245l2.683-2.683c1.697-1.697 1.697-4.381 0-6.078-0.821-0.821-1.916-1.26-3.012-1.26-1.149 0-2.245 0.439-3.012 1.26l-5.969 5.914c-1.697 1.697-1.697 4.381 0 6.078 0.603 0.603 0.603 1.643 0 2.245-0.273 0.273-0.712 0.439-1.095 0.439z"></path>
<path d="M8.169 31.333c-2.027 0-3.888-0.767-5.312-2.191-2.903-2.903-2.903-7.666 0-10.569l2.683-2.683c0.603-0.603 1.643-0.603 2.245 0s0.603 1.643 0 2.245l-2.683 2.683c-1.697 1.697-1.697 4.381 0 6.078 0.821 0.821 1.916 1.26 3.012 1.26s2.245-0.439 3.012-1.26l5.969-5.914c1.697-1.697 1.697-4.381 0-6.078-0.603-0.603-0.603-1.643 0-2.245s1.643-0.603 2.245 0c2.903 2.903 2.903 7.666 0 10.569l-5.914 5.914c-1.424 1.424-3.285 2.191-5.257 2.191z"></path>
</symbol>
<symbol id="icon-loading" viewBox="0 0 32 32">
<path d="M29.417 17.916h-3.832c-1.055 0-1.916-0.86-1.916-1.916s0.86-1.916 1.916-1.916h3.832c1.055 0 1.916 0.86 1.916 1.916s-0.86 1.916-1.916 1.916zM24.135 10.579c-0.751 0.748-1.964 0.748-2.713 0-0.748-0.748-0.748-1.96 0-2.708l2.713-2.708c0.748-0.748 1.96-0.748 2.708 0s0.748 1.96 0 2.708l-2.708 2.708zM16 31.333c-1.061 0-1.916-0.86-1.916-1.916v-3.832c0-1.055 0.855-1.916 1.916-1.916 1.055 0 1.916 0.86 1.916 1.916v3.832c0 1.055-0.86 1.916-1.916 1.916v0zM16 8.331c-1.061 0-1.916-0.86-1.916-1.916v-3.832c0-1.055 0.855-1.916 1.916-1.916 1.055 0 1.916 0.86 1.916 1.916v3.832c0 1.061-0.86 1.916-1.916 1.916v0zM7.865 26.841c-0.748 0.748-1.96 0.748-2.708 0s-0.748-1.96 0-2.708l2.708-2.713c0.748-0.748 1.96-0.748 2.708 0s0.748 1.96 0 2.713l-2.708 2.708zM7.865 10.579l-2.713-2.708c-0.748-0.748-0.748-1.96 0-2.708s1.96-0.748 2.708 0l2.708 2.708c0.748 0.748 0.748 1.96 0 2.708-0.735 0.748-1.953 0.748-2.701 0zM8.331 16c0 1.055-0.855 1.916-1.916 1.916h-3.832c-1.061 0-1.916-0.86-1.916-1.916s0.855-1.916 1.916-1.916h3.832c1.061 0 1.916 0.855 1.916 1.916v0zM24.135 21.421l2.708 2.713c0.748 0.748 0.748 1.96 0 2.708s-1.96 0.748-2.708 0l-2.713-2.708c-0.748-0.751-0.748-1.964 0-2.713 0.748-0.748 1.96-0.748 2.713 0z"></path>
</symbol>
<symbol id="icon-location" viewBox="0 0 32 32">
<path d="M16 0.667c-6.436 0-11.652 5.508-11.652 12.301 0 6.795 7.728 18.365 11.652 18.365 3.959 0 11.652-11.571 11.652-18.365s-5.216-12.301-11.652-12.301v0zM16 19.135c-3.225 0-5.84-2.763-5.84-6.167s2.615-6.165 5.84-6.165c3.225 0 5.84 2.76 5.84 6.165s-2.615 6.168-5.84 6.168v0z"></path>
</symbol>
<symbol id="icon-male" viewBox="0 0 32 32">
<path d="M16 22.576c8.549 0 14.967 2.183 14.967 8.757v0h-29.935c0-6.561 6.418-8.757 14.967-8.757zM16 0.668c5.34 0 3.857 1.577 7.801 1.887-0.087 1.4-1.396 2.152-1.396 2.152 1.065 1.091 1.597 3.184 1.597 5.824l-0.015 0.353c0.648 0.177 1.123 0.693 1.123 1.416 0 1.696-1.627 4.246-2.533 4.466-1.309 2.653-3.497 4.702-6.577 4.702-3.095 0-5.282-2.049-6.577-4.702-0.921-0.221-2.548-2.772-2.548-4.466 0-0.737 0.475-1.239 1.123-1.416 0-0.117-0.015-0.236-0.015-0.353 0-4.836 1.597-9.864 8.016-9.864z"></path>
</symbol>
<symbol id="icon-note" viewBox="0 0 32 32">
<path d="M9.589 9.53h12.392c0.51 0 0.823-0.47 0.823-1.216s-0.313-1.216-0.823-1.216h-12.392c-0.51 0-0.823 0.47-0.823 1.216s0.313 1.216 0.823 1.216zM17.745 20.040h-8.157c-0.51 0-0.823 0.47-0.823 1.216s0.313 1.216 0.823 1.216h8.196c0.432 0 0.823-0.47 0.823-1.216-0.040-0.746-0.353-1.216-0.863-1.216zM21.392 13.569h-11.803c-0.51 0-0.823 0.47-0.823 1.216s0.313 1.216 0.823 1.216h11.803c0.432 0 0.823-0.47 0.823-1.216 0-0.706-0.313-1.216-0.823-1.216zM5.51 0.667h20.98c1.765 0 3.215 1.452 3.215 3.215v19.373c0 4.471-3.608 8.078-8.078 8.078h-16.117c-1.765 0-3.215-1.452-3.215-3.215v-24.235c0-1.765 1.452-3.215 3.215-3.215z"></path>
</symbol>
<symbol id="icon-phone" viewBox="0 0 32 32">
<path d="M24.238 0.667h-16.465c-1.352 0-2.443 1.148-2.443 2.556v25.554c0 1.409 1.091 2.556 2.443 2.556h16.465c1.341 0 2.432-1.148 2.432-2.556v-25.554c0-1.409-1.091-2.556-2.432-2.556v0zM16 29.117c-1.356 0-2.453-1.153-2.453-2.58 0-1.411 1.099-2.564 2.453-2.564s2.453 1.153 2.453 2.564c0 1.427-1.099 2.58-2.453 2.58zM23.626 20.984c0 0.784-0.603 1.408-1.341 1.408h-12.567c-0.739 0-1.341-0.624-1.341-1.408v-15.715c0-0.784 0.603-1.409 1.341-1.409h12.567c0.74 0 1.341 0.625 1.341 1.409v15.715z"></path>
</symbol>
<symbol id="icon-search" viewBox="0 0 32 32">
<path d="M14.386 28.358c7.571 0 13.708-6.137 13.708-13.708s-6.137-13.708-13.708-13.708c-7.571 0-13.708 6.137-13.708 13.708s6.137 13.708 13.708 13.708zM14.386 25.195c-5.824 0-10.544-4.721-10.544-10.544s4.721-10.544 10.544-10.544c5.824 0 10.544 4.721 10.544 10.544s-4.721 10.544-10.544 10.544z"></path>
<path d="M22.284 24.258l2.237-2.237 6.337 6.337c0.617 0.617 0.617 1.619 0 2.237s-1.619 0.617-2.237 0l-6.337-6.337z"></path>
</symbol>
<symbol id="icon-share-outcircle" viewBox="0 0 32 32">
<path d="M16 0.667c-8.468 0-15.333 6.865-15.333 15.333s6.865 15.333 15.333 15.333c8.468 0 15.333-6.865 15.333-15.333s-6.865-15.333-15.333-15.333zM21.661 25.556c0 0-8.375-0.992-9.275-9.597h-3.932l7.252-9.515 7.157 9.515h-4.395c-0.037 2.505 0.195 8.429 3.193 9.597z"></path>
</symbol>
<symbol id="icon-spinner" viewBox="0 0 32 32">
<path d="M16 30.489c-4.085 0-7.927-1.591-10.816-4.48s-4.481-6.73-4.481-10.816c0-2.894 0.812-5.711 2.348-8.146 1.494-2.368 3.605-4.283 6.106-5.536l1.285 2.565c-2.033 1.018-3.749 2.575-4.964 4.501-1.247 1.978-1.907 4.266-1.907 6.617 0 6.853 5.575 12.428 12.428 12.428s12.428-5.575 12.428-12.428c0-2.351-0.659-4.639-1.907-6.617-1.215-1.926-2.932-3.482-4.964-4.501l1.285-2.565c2.501 1.253 4.612 3.166 6.106 5.536 1.536 2.437 2.348 5.254 2.348 8.146 0 4.085-1.591 7.927-4.48 10.816s-6.73 4.48-10.816 4.48z"></path>
</symbol>
<symbol id="icon-tag" viewBox="0 0 32 32">
<path d="M12.419 0.669c2.989-0.007 4.732 1.717 7.145 4.1l10.691 10.882c0.684 0.665 1.077 1.621 1.077 2.631 0 1.003-0.388 1.953-1.064 2.607l-9.697 9.466c-1.343 1.304-3.898 1.309-5.246-0.007l-12.049-11.813c-2.083-2.024-2.609-2.832-2.609-5.577v-5.198c0-4.902 0.995-7.093 6.889-7.093h4.862zM9.116 5.677c-1.895 0-3.441 1.547-3.441 3.441 0 1.897 1.547 3.444 3.441 3.444 1.897 0 3.444-1.547 3.444-3.444 0-1.895-1.547-3.441-3.444-3.441z"></path>
</symbol>
<symbol id="icon-tag-group" viewBox="0 0 32 32">
<path d="M25.042 18.225c0-0.559-0.187-1.039-0.585-1.465l-11.425-11.398c-0.4-0.4-0.957-0.745-1.625-1.039-0.693-0.295-1.303-0.427-1.865-0.427h-6.655c-0.559 0-1.039 0.213-1.439 0.612s-0.612 0.88-0.612 1.439v6.631c0 0.559 0.132 1.199 0.427 1.865 0.295 0.693 0.612 1.225 1.039 1.625l11.425 11.425c0.4 0.4 0.88 0.585 1.439 0.585s1.039-0.187 1.465-0.585l7.83-7.83c0.369-0.4 0.583-0.88 0.583-1.439v0zM7.385 10.474c-0.4 0.4-0.88 0.585-1.439 0.585s-1.039-0.187-1.439-0.585c-0.4-0.4-0.585-0.88-0.585-1.439s0.187-1.039 0.585-1.439c0.4-0.4 0.88-0.585 1.439-0.585s1.039 0.187 1.439 0.585c0.4 0.4 0.585 0.88 0.585 1.439 0.027 0.561-0.187 1.039-0.585 1.439zM30.579 16.76l-11.425-11.398c-0.4-0.4-0.957-0.745-1.625-1.039-0.693-0.295-1.303-0.427-1.865-0.427h-3.592c0.559 0 1.199 0.132 1.865 0.427 0.693 0.295 1.225 0.612 1.625 1.039l11.425 11.398c0.4 0.427 0.585 0.904 0.585 1.465s-0.187 1.039-0.585 1.439l-7.484 7.508c0.319 0.319 0.612 0.559 0.853 0.717s0.559 0.213 0.931 0.213c0.559 0 1.039-0.187 1.465-0.585l7.827-7.854c0.4-0.4 0.585-0.88 0.585-1.439s-0.187-1.039-0.585-1.465z" fill-rule="inherit"></path>
</symbol>
<symbol id="icon-triangle-down" viewBox="0 0 32 32">
<path d="M4.103 5.951h23.792c1.717 0 3.11 1.392 3.11 3.11 0 0.743-0.265 1.46-0.748 2.024l-11.895 13.878c-1.117 1.304-3.080 1.455-4.384 0.337-0.121-0.104-0.233-0.216-0.337-0.337l-11.895-13.878c-1.117-1.304-0.967-3.267 0.337-4.384 0.564-0.483 1.281-0.748 2.024-0.748z"></path>
</symbol>
<symbol id="icon-time" viewBox="0 0 18 18">
    <circle cx="9" cy="9" r="7.5" fill-rule="inherit"></circle>
    <path d="M8.25,5.5 C8.66421356,5.5 9,5.83578644 9,6.25 L9,9.502 L12.2505188,9.50262451 C12.6647324,9.50262451 13.0005188,9.83841095 13.0005188,10.2526245 C13.0005188,10.6668381 12.6647324,11.0026245 12.2505188,11.0026245 L8.2505188,11.0026245 C7.87082303,11.0026245 7.55702784,10.7204706 7.50736541,10.3543951 C7.50233185,10.318491 7.5,10.2845178 7.5,10.25 L7.5,6.25 C7.5,5.83578644 7.83578644,5.5 8.25,5.5 Z" fill="#fff"></path>
</symbol>
<symbol id="icon-mobile" viewBox="0 0 18 18">
    <path d="M11.8012201,10.72638 C11.5230957,10.6518014 11.0980745,11.1227514 11.0980745,11.1227514 C10.9622232,11.2586027 10.8388902,11.4878699 10.7299591,11.7312823 C10.5559023,12.1202386 10.0679645,12.2644639 9.71490182,12.0258636 C8.27710093,11.0541664 6.8872153,9.66056472 5.92291601,8.22207882 C5.69135404,7.87665384 5.82330087,7.40436809 6.19490971,7.21770742 C6.53427251,7.04724684 6.84793093,6.88245459 6.84793093,6.88245459 L6.84537932,6.87394355 C7.07743792,6.76831758 7.20796339,6.50721527 7.13992644,6.25323689 C7.13992644,6.25323689 5.1986041,1.5 4.64355405,1.5 C2.90760983,1.5 1.5,2.90760983 1.5,4.64355405 C1.5,5.04174065 1.576822,5.41894931 1.71305003,5.76824452 C3.16955125,10.822399 7.1479066,14.7972437 12.202061,16.2572555 C12.5513391,16.3934836 12.9320584,16.4703056 13.330245,16.4703056 C15.0661721,16.4703056 16.5,15.1465218 16.5,13.4105776 C16.5,13.4105776 14.1083289,11.6535527 11.8012201,10.72638 Z" fill-rule="inherit"></path>
</symbol>
<symbol id="icon-money" viewBox="0 0 1024 1024">
    <path d="M512 1024C229.297231 1024 0 794.742154 0 512S229.257846 0 512 0s512 229.257846 512 512-229.257846 512-512 512z m-58.604308-582.380308H307.2v102.4h150.370462v73.609846H307.2v102.4h150.370462v143.95077h102.4v-143.95077h157.341538V617.550769h-157.302154v-73.570461h157.302154v-102.4h-148.676923l179.436308-186.171077-73.688616-71.089231-163.367384 169.472L347.372308 184.162462 273.723077 255.251692l179.712 186.289231v0.078769z" fill="currentColor" p-id="2048"></path>
</symbol>
<symbol id="icon-dianzanon" viewBox="0 0 17 17" version="1.1" xmlns="http://www.w3.org/2000/svg" xmlns:xlink="http://www.w3.org/1999/xlink">
    <path fill="currentColor" d="M14.6727897,5.48344066 C14.1518791,4.91191352 13.3009395,4.91191352 13.0208609,4.91191352 L10.7766639,4.91191352 C10.9586259,4.02322907 11.1138287,2.98965041 10.7802318,1.89972401 C10.5518875,1.14949402 10.1326615,0.616605336 9.49579478,0.272079117 C9.16219793,0.0917663293 8.8161135,0 8.46467725,0 C7.54059615,0 6.8484273,0.618215271 6.74495876,1.54070837 C6.70571207,1.88523459 6.67003326,2.21205152 6.5790523,2.49218031 C6.24010364,3.52092916 5.41235531,4.30657774 4.6470449,4.93606256 C4.36161445,5.16789328 4.05656065,5.58325667 4.05299277,6.05013799 C4.04228913,7.29944802 4.04050518,8.55358786 4.04050518,9.8350966 L4.03870016,12.1115455 C4.03515336,12.8730451 4.48470633,13.4864305 5.23396128,13.74885 C5.62999604,13.8937443 6.04922202,13.974241 6.48450346,13.9855106 C7.17667232,13.9935603 7.87240906,13.9935603 8.52354729,13.9935603 L9.53860934,13.9935603 C10.2022352,13.9935603 10.865861,13.9935603 11.5330547,14 L11.5544619,14 C12.330476,14 12.9405836,13.650644 13.2295819,13.0420883 L13.3152111,12.8633855 C13.5167963,12.4448022 13.7237334,12.0117295 13.8521771,11.5303588 C14.244644,10.0669273 14.6531663,8.50045998 14.9831953,6.96136155 C15.1152069,6.35119595 15.0117383,5.85372585 14.6727897,5.48344066 Z M1.838425,5.60292088 L1.64618197,5.60292088 C0.73827788,5.60292088 0,6.28610856 0,7.12626495 L0,12.3346366 C0,13.174793 0.73827788,13.8579807 1.64618197,13.8579807 L1.838425,13.8579807 C2.74632909,13.8579807 3.48460961,13.174793 3.48460961,12.3346366 L3.48460961,7.12626495 C3.48622246,6.28610856 2.74632909,5.60292088 1.838425,5.60292088 L1.838425,5.60292088 Z"></path>
</symbol>
<symbol id="icon-dianzannot" viewBox="0 0 17 17" version="1.1" xmlns="http://www.w3.org/2000/svg" xmlns:xlink="http://www.w3.org/1999/xlink">
    <path d="M14.6727897,5.48344066 C14.1518791,4.91191352 13.3009395,4.91191352 13.0208609,4.91191352 L10.7766639,4.91191352 C10.9586259,4.02322907 11.1138287,2.98965041 10.7802318,1.89972401 C10.5518875,1.14949402 10.1326615,0.616605336 9.49579478,0.272079117 C9.16219793,0.0917663293 8.8161135,0 8.46467725,0 C7.54059615,0 6.8484273,0.618215271 6.74495876,1.54070837 C6.70571207,1.88523459 6.67003326,2.21205152 6.5790523,2.49218031 C6.24010364,3.52092916 5.41235531,4.30657774 4.6470449,4.93606256 C4.36161445,5.16789328 4.05656065,5.58325667 4.05299277,6.05013799 C4.04228913,7.29944802 4.04050518,8.55358786 4.04050518,9.8350966 L4.03870016,12.1115455 C4.03515336,12.8730451 4.48470633,13.4864305 5.23396128,13.74885 C5.62999604,13.8937443 6.04922202,13.974241 6.48450346,13.9855106 C7.17667232,13.9935603 7.87240906,13.9935603 8.52354729,13.9935603 L9.53860934,13.9935603 C10.2022352,13.9935603 10.865861,13.9935603 11.5330547,14 L11.5544619,14 C12.330476,14 12.9405836,13.650644 13.2295819,13.0420883 L13.3152111,12.8633855 C13.5167963,12.4448022 13.7237334,12.0117295 13.8521771,11.5303588 C14.244644,10.0669273 14.6531663,8.50045998 14.9831953,6.96136155 C15.1152069,6.35119595 15.0117383,5.85372585 14.6727897,5.48344066 Z M1.838425,5.60292088 L1.64618197,5.60292088 C0.73827788,5.60292088 0,6.28610856 0,7.12626495 L0,12.3346366 C0,13.174793 0.73827788,13.8579807 1.64618197,13.8579807 L1.838425,13.8579807 C2.74632909,13.8579807 3.48460961,13.174793 3.48460961,12.3346366 L3.48460961,7.12626495 C3.48622246,6.28610856 2.74632909,5.60292088 1.838425,5.60292088 L1.838425,5.60292088 Z" transform="translate(7.519350, 7.000000) scale(1, -1) translate(-7.519350, -7.000000) "></path>
</symbol>
<symbol id="icon-current-processor" t="1640144419305" class="icon" viewBox="0 0 1025 1024" version="1.1" xmlns="http://www.w3.org/2000/svg" p-id="666">
<path d="M236.96 216.416c0 106.048 82.464 192.064 184.224 192.064 101.696 0 184.192-86.016 184.192-192.064 0-106.016-82.496-192-184.192-192-101.792 0-184.224 85.984-184.224 192z m575.648 617.472c-13.92-30.944-42.496-122.048-75.2-122.048-32.64 0-35.296 12.32-35.296 12.32l35.296 94.592-180.736-15.776-76.416-180.736C405.568 438.016 330.784 417.248 257.824 417.248c-35.328 0-109.504 4.224-166.336 76.064C34.784 565.12 0 962.88 0 962.88h346.048L221.696 721.088l52.512-33.184s9.312 20.032 70.272 149.824c61.056 129.888 102.72 147.584 102.72 147.584h325.216c47.84 0 86.464-15.456 86.464-77.312 0-61.824-46.272-74.112-46.272-74.112z m0 0" p-id="667"></path><path d="M690.464 474.688s-33.568 64.928-60.16 92.704c-26.688 27.776-78.816 98.464-38.24 155.232L711.392 526.72l249.12 113.632-91.488 136.704s-12.8 54.464 4.608 56.768c17.376 2.304 151.808-216.672 151.808-216.672L690.464 474.688z m0 0" p-id="668"></path>
</symbol>
<symbol id="icon-add-fill" viewBox="0 0 32 32">
  <path d="M22.829 16.911h-5.559v5.559c0 0.702-0.569 1.271-1.271 1.271s-1.271-0.569-1.271-1.271v0-5.559h-5.559c-0.702 0-1.271-0.569-1.271-1.271s0.569-1.271 1.271-1.271v0h5.559v-5.559c0-0.702 0.569-1.271 1.271-1.271s1.271 0.569 1.271 1.271v0 5.559h5.559c0.702 0 1.271 0.569 1.271 1.271s-0.569 1.271-1.271 1.271v0zM16 0.75c-8.409 0-15.25 6.842-15.25 15.25 0 8.409 6.841 15.25 15.25 15.25s15.25-6.841 15.25-15.25c0-8.408-6.841-15.25-15.25-15.25z"></path>
</symbol>
<symbol id="icon-remove-fill" viewBox="0 0 32 32">
  <path d="M16 0.75c4.312 0.113 7.903 1.606 10.774 4.476s4.363 6.462 4.476 10.774c-0.113 4.312-1.606 7.903-4.476 10.774s-6.462 4.363-10.774 4.476c-4.312-0.113-7.903-1.606-10.774-4.476s-4.363-6.462-4.476-10.774c0.113-4.312 1.606-7.903 4.476-10.774s6.462-4.363 10.774-4.476zM8.375 16c0 0.363 0.125 0.669 0.374 0.919s0.556 0.374 0.919 0.374h12.663c0.363 0 0.669-0.125 0.919-0.374s0.374-0.556 0.374-0.919c0-0.363-0.125-0.669-0.374-0.919s-0.556-0.374-0.919-0.374h-12.663c-0.363 0-0.669 0.125-0.919 0.374s-0.374 0.556-0.374 0.919z"></path>
</symbol>
<symbol id="icon-shop" viewBox="0 0 1024 1024">
<path d="M952.832 352.768c-0.064-0.48-0.16-0.928-0.256-1.312-0.384-1.856-0.896-3.648-1.632-5.376L875.936 159.36c-12.96-38.592-48.832-62.56-93.952-62.56L255.488 96.8c-44.224 0-78.592 23.52-91.04 60.704l-80.64 190.528c-0.384 1.12-0.8 2.784-1.152 4.48-5.856 17.984-8.8 36.448-8.8 54.976 0.064 65.184 35.84 124.704 93.28 155.264 23.648 12.672 51.52 19.072 82.816 19.072 0.032 0 0.064 0 0.096 0 52.512-0.128 101.152-23.2 134.304-62.688 32.992 39.136 81.248 62.08 133.664 62.4 52-0.384 100.096-23.424 132.96-62.56 33.152 39.488 81.856 62.496 134.624 62.496 31.936-0.192 60.288-6.88 84.16-20 56.576-30.88 91.68-90.176 91.648-154.656C961.44 388.256 958.4 369.696 952.832 352.768zM766.432 383.968 254.4 383.968c-17.664 0-32-14.336-32-32s14.336-32 32-32l512.032 0c17.696 0 32 14.336 32 32S784.128 383.968 766.432 383.968z" p-id="2711"></path><path d="M895.072 640c0-17.696-14.304-32-32-32-3.296 0-6.272 0.928-9.248 1.888l0 0c-23.712 9.376-54.048 14.432-76.928 13.184-50.432-2.688-88.864-12.736-125.888-44.256-36.512 31.136-83.104 48.864-132.704 49.312-50.304-0.32-97.152-12.928-133.856-44.128-36.928 31.488-84.064 46.816-134.272 46.816L249.984 630.816c-30.656 0-47.936-5.824-75.84-16.128-0.768-0.384-1.568-0.576-2.368-0.864-1.344-0.512-2.368-0.864-3.744-1.376 0 0-4.608-0.8-7.136-0.8 0 0-0.032 0-0.064 0-17.664 0-31.968 14.368-31.936 32.064l0.224 171.488c0 45.12 36.768 81.824 81.984 81.824l602.176-0.384c45.152-0.128 81.888-36.928 81.888-82.048L895.072 640z" p-id="2712" data-spm-anchor-id="a313x.7781069.0.i0" class="selected"></path>
</symbol>
<symbol id="icon-store" viewBox="0 0 1024 1024">
    <path d="M810.666667 576c-64 0-119.466667-36.266667-149.333333-89.6-29.866667 53.333333-85.333333 89.6-149.333333 89.6s-119.466667-36.266667-149.333333-89.6c-29.866667 53.333333-85.333333 89.6-149.333333 89.6-93.866667 0-170.666667-76.8-170.666667-170.666667l0 0c0-4.266667 0-6.4 2.133333-10.666667l128-277.333333c0-2.133333 2.133333-2.133333 4.266667-4.266667 0 0 0-2.133333 2.133333-2.133333 2.133333-2.133333 4.266667-2.133333 6.4-4.266667 0 0 0 0 0 0C187.733333 106.666667 189.866667 106.666667 194.133333 106.666667l635.733333 0c4.266667 0 6.4 0 10.666667 2.133333 0 0 0 0 0 0 2.133333 0 4.266667 2.133333 6.4 4.266667 0 0 0 2.133333 2.133333 2.133333 2.133333 2.133333 2.133333 2.133333 4.266667 4.266667l128 277.333333C981.333333 398.933333 981.333333 401.066667 981.333333 405.333333l0 0C981.333333 499.2 904.533333 576 810.666667 576zM817.066667 149.333333 206.933333 149.333333 85.333333 409.6c2.133333 68.266667 57.6 123.733333 128 123.733333 55.466667 0 102.4-36.266667 119.466667-85.333333l12.8 0 32 0 12.8 0c17.066667 49.066667 64 85.333333 119.466667 85.333333s102.4-36.266667 119.466667-85.333333l12.8 0 32 0 12.8 0c17.066667 49.066667 64 85.333333 119.466667 85.333333 68.266667 0 125.866667-55.466667 128-123.733333L817.066667 149.333333zM768 362.666667 277.333333 362.666667c-12.8 0-21.333333-8.533333-21.333333-21.333333s8.533333-21.333333 21.333333-21.333333l490.666667 0c12.8 0 21.333333 8.533333 21.333333 21.333333S780.8 362.666667 768 362.666667zM149.333333 618.666667c12.8 0 21.333333 8.533333 21.333333 21.333333l0 192c0 23.466667 19.2 42.666667 42.666667 42.666667l597.333333 0c23.466667 0 42.666667-19.2 42.666667-42.666667l0-192c0-12.8 8.533333-21.333333 21.333333-21.333333s21.333333 8.533333 21.333333 21.333333l0 192c0 46.933333-38.4 85.333333-85.333333 85.333333L213.333333 917.333333c-46.933333 0-85.333333-38.4-85.333333-85.333333l0-192C128 627.2 136.533333 618.666667 149.333333 618.666667z" p-id="3844"></path>
</symbol>
<symbol id="icon-photo" viewBox="0 0 1280 1024">
    <path d="M1140.363636 93.090909a47.127273 47.127273 0 0 1 46.545455 46.545455v744.727272a47.127273 47.127273 0 0 1-46.545455 46.545455H139.636364a47.127273 47.127273 0 0 1-46.545455-46.545455V139.636364a47.127273 47.127273 0 0 1 46.545455-46.545455h1000.727272m0-93.090909H139.636364A139.636364 139.636364 0 0 0 0 139.636364v744.727272a139.636364 139.636364 0 0 0 139.636364 139.636364h1000.727272a139.636364 139.636364 0 0 0 139.636364-139.636364V139.636364A139.636364 139.636364 0 0 0 1140.363636 0z" fill="currentColor" p-id="4058"></path><path d="M740.189091 544.349091a210.385455 210.385455 0 0 1-264.261818 88.087273 235.52 235.52 0 0 0-295.912728 98.443636L109.149091 852.945455l67.607273 35.84 60.974545-104.727273A177.92 177.92 0 0 1 461.381818 709.818182a267.636364 267.636364 0 0 0 336.290909-112.174546 177.338182 177.338182 0 0 1 223.069091-74.356363l113.803637 61.207272 36.18909-67.607272L1035.636364 445.905455a234.821818 234.821818 0 0 0-295.447273 98.443636z" fill="#999999" p-id="4059"></path><path d="M313.832727 257.629091m-81.454545 0a81.454545 81.454545 0 1 0 162.909091 0 81.454545 81.454545 0 1 0-162.909091 0Z" fill="#999999" p-id="4060"></path>
</symbol>
<symbol id='icon-record' viewBox="0 0 1024 1024">
    <path d="M992.213333 220.8c-18.346667-10.24-53.12-15.36-105.386666 17.066667C840.533333 266.666667 768 314.88 725.333333 343.466667V256c0-47.146667-30.293333-93.226667-77.226666-93.226667h-554.666667A99.84 99.84 0 0 0 0 256v512c0 47.146667 46.293333 77.44 93.44 77.44h554.666667A72.32 72.32 0 0 0 725.333333 768v-87.466667c42.666667 28.586667 117.12 76.8 163.413334 106.666667a144.213333 144.213333 0 0 0 73.6 23.466667 52.48 52.48 0 0 0 28.8-7.68c16.426667-8.96 32.853333-29.866667 32.853333-77.653334V298.666667c0-47.786667-15.573333-68.693333-31.786667-77.866667zM682.666667 768a30.293333 30.293333 0 0 1-34.56 34.773333h-554.666667C69.76 802.773333 42.666667 791.466667 42.666667 768V256a57.6 57.6 0 0 1 50.773333-50.56h554.666667C671.573333 205.44 682.666667 232.533333 682.666667 256v512z m298.666666-42.666667c0 21.333333-1.066667 35.626667-10.026666 40.533334s-35.84 0-62.08-16C853.333333 714.666667 768 649.386667 725.333333 628.693333V395.306667c42.666667-21.333333 129.28-85.333333 186.026667-121.173334 26.24-16.426667 46.72-21.333333 58.24-16S981.333333 277.333333 981.333333 298.666667v426.666666z" fill="#666666" p-id="5990"></path><path d="M178.773333 362.666667m-42.666666 0a42.666667 42.666667 0 1 0 85.333333 0 42.666667 42.666667 0 1 0-85.333333 0Z" fill="currentColor" p-id="5991"></path>
</symbol>
<symbol id="icon-plus" viewBox="0 0 1024 1024">
    <path d="M899.437541 570.198493 568.89122 570.198493l0 330.508459c0 32.216749-26.103518 58.397015-58.341756 58.397015-32.216749 0-58.283428-26.180266-58.283428-58.397015L452.266036 570.198493 121.718691 570.198493c-32.217772 0-58.359152-26.121937-58.359152-58.340733s26.14138-58.284451 58.359152-58.284451l330.547345 0L452.266036 122.969683c0-32.17991 26.066679-58.340733 58.283428-58.340733 32.238238 0 58.341756 26.160823 58.341756 58.340733L568.89122 453.573309l330.547345 0c32.218796 0 58.359152 26.065655 58.359152 58.284451S931.656337 570.198493 899.437541 570.198493" p-id="1407" fill="currentColor"></path>
</symbol>
<symbol id="icon-minus" viewBox="0 0 1024 1024">
    <path d="M853.333333 554.666667H170.666667c-23.466667 0-42.666667-19.2-42.666667-42.666667s19.2-42.666667 42.666667-42.666667h682.666666c23.466667 0 42.666667 19.2 42.666667 42.666667s-19.2 42.666667-42.666667 42.666667z" fill="currentColor" p-id="2237"></path>
</symbol>
<symbol id="icon-waiting-outcircle" viewBox="0 0 37 37">
    <g stroke-width="1" fill-rule="evenodd">
    <g transform="translate(-169.000000, -119.000000)" fill="currentColor">
        <g transform="translate(169.000000, 119.000000)">
            <path d="M18.3333,36.6667 C28.4586,36.6667 36.6667,28.4586 36.6667,18.3333 C36.6667,8.20811 28.4586,0 18.3333,0 C8.20811,0 0,8.20811 0,18.3333 C0,28.4586 8.20811,36.6667 18.3333,36.6667 Z M15.9583,20.7083 L27.4167,20.7083 L27.4167,17.9583 L18.7083,17.9583 L18.7083,9.25 L15.9583,9.25 L15.9583,20.7083 Z" id="Subtract"></path>
        </g>
    </g>
    </g>
</symbol>
<symbol id="icon-drop" viewBox="0 0 11 16">
    <g transform="translate(-36.000000, -168.000000)" fill="currentColor" fill-rule="nonzero">
        <g  transform="translate(20.000000, 107.000000)">
            <g transform="translate(16.000000, 60.000000)">
                <g transform="translate(0.000000, 1.000000)">
                    <path d="M5.25788557,15.8837014 L0.0802791425,9.66585066 L0.080279159,9.66585068 C-0.0376390186,9.52454464 -0.0240765136,9.30967486 0.110571858,9.18592611 C0.169716002,9.1315696 0.24567199,9.101629 0.324289522,9.10168216 L3.1189776,9.10168216 L3.1189776,9.10168216 C3.2991872,9.09733342 3.44310247,8.94274818 3.4430548,8.75357791 L3.44305528,8.7534289 C3.44660615,7.66870362 3.38419975,6.58485085 3.25621678,5.50846607 C2.90928187,2.8598321 1.6892241,1.37137887 0.74749977,0.603158055 L0.747499789,0.603158071 C0.609068071,0.484095729 0.588818852,0.269806843 0.702270976,0.124529767 C0.778594839,0.0267966929 0.900258965,-0.0184715746 1.01819949,0.00698025489 C6.46650473,0.951261703 7.61031448,7.35716312 7.81619934,8.80960552 L7.81619934,8.80960551 C7.83573322,8.97877984 7.97411145,9.10498352 8.13646369,9.10169204 L10.6795097,9.10169204 L10.6795098,9.10169204 C10.8584812,9.10377088 11.0019614,9.2577153 11,9.44553692 C10.999124,9.52667608 10.970653,9.6048196 10.9197074,9.66585977 L5.74591533,15.8837105 L5.74591534,15.8837105 C5.62812888,16.0251375 5.42339666,16.0395807 5.28863282,15.9159703 C5.27770974,15.9059512 5.26744,15.8951737 5.25789298,15.8837105 L5.25788557,15.8837014 Z" id="路径"></path>
                </g>
            </g>
        </g>
    </g>
</symbol>
</defs>
</svg>
