<!-- Generated by IcoMoon.io -->
<svg version="1.1" xmlns="http://www.w3.org/2000/svg" width="32" height="32" viewBox="0 0 32 32">
<title>info</title>
<path d="M13.956 9.764c0 1.129 0.916 2.044 2.044 2.044s2.044-0.916 2.044-2.044c0-1.129-0.915-2.044-2.044-2.044s-2.044 0.916-2.044 2.044v0z"></path>
<path d="M16 0.667c-8.484 0-15.333 6.849-15.333 15.333s6.849 15.333 15.333 15.333c8.484 0 15.333-6.849 15.333-15.333s-6.849-15.333-15.333-15.333zM16 29.289c-7.36 0-13.289-5.929-13.289-13.289s5.929-13.289 13.289-13.289c7.36 0 13.289 5.929 13.289 13.289s-5.929 13.289-13.289 13.289z"></path>
<path d="M17.431 13.24h-4.907v2.044h2.044v7.667h-2.044v2.147h6.951v-2.147h-2.044z"></path>
</svg>
