<!-- Generated by IcoMoon.io -->
<svg version="1.1" xmlns="http://www.w3.org/2000/svg" width="32" height="32" viewBox="0 0 32 32">
<title>link</title>
<path d="M13.809 19.779c-0.384 0-0.821-0.164-1.149-0.493-2.903-2.903-2.903-7.666 0-10.569l5.914-5.86c1.424-1.424 3.285-2.191 5.312-2.191 1.972 0 3.833 0.767 5.257 2.191 2.903 2.903 2.903 7.666 0 10.569l-2.683 2.683c-0.603 0.603-1.643 0.603-2.245 0s-0.603-1.643 0-2.245l2.683-2.683c1.697-1.697 1.697-4.381 0-6.078-0.821-0.821-1.916-1.26-3.012-1.26-1.149 0-2.245 0.439-3.012 1.26l-5.969 5.914c-1.697 1.697-1.697 4.381 0 6.078 0.603 0.603 0.603 1.643 0 2.245-0.273 0.273-0.712 0.439-1.095 0.439z"></path>
<path d="M8.169 31.333c-2.027 0-3.888-0.767-5.312-2.191-2.903-2.903-2.903-7.666 0-10.569l2.683-2.683c0.603-0.603 1.643-0.603 2.245 0s0.603 1.643 0 2.245l-2.683 2.683c-1.697 1.697-1.697 4.381 0 6.078 0.821 0.821 1.916 1.26 3.012 1.26s2.245-0.439 3.012-1.26l5.969-5.914c1.697-1.697 1.697-4.381 0-6.078-0.603-0.603-0.603-1.643 0-2.245s1.643-0.603 2.245 0c2.903 2.903 2.903 7.666 0 10.569l-5.914 5.914c-1.424 1.424-3.285 2.191-5.257 2.191z"></path>
</svg>
