<!-- Generated by IcoMoon.io -->
<svg version="1.1" xmlns="http://www.w3.org/2000/svg" width="32" height="32" viewBox="0 0 32 32">
<title>loading</title>
<path d="M29.417 17.916h-3.832c-1.055 0-1.916-0.86-1.916-1.916s0.86-1.916 1.916-1.916h3.832c1.055 0 1.916 0.86 1.916 1.916s-0.86 1.916-1.916 1.916zM24.135 10.579c-0.751 0.748-1.964 0.748-2.713 0-0.748-0.748-0.748-1.96 0-2.708l2.713-2.708c0.748-0.748 1.96-0.748 2.708 0s0.748 1.96 0 2.708l-2.708 2.708zM16 31.333c-1.061 0-1.916-0.86-1.916-1.916v-3.832c0-1.055 0.855-1.916 1.916-1.916 1.055 0 1.916 0.86 1.916 1.916v3.832c0 1.055-0.86 1.916-1.916 1.916v0zM16 8.331c-1.061 0-1.916-0.86-1.916-1.916v-3.832c0-1.055 0.855-1.916 1.916-1.916 1.055 0 1.916 0.86 1.916 1.916v3.832c0 1.061-0.86 1.916-1.916 1.916v0zM7.865 26.841c-0.748 0.748-1.96 0.748-2.708 0s-0.748-1.96 0-2.708l2.708-2.713c0.748-0.748 1.96-0.748 2.708 0s0.748 1.96 0 2.713l-2.708 2.708zM7.865 10.579l-2.713-2.708c-0.748-0.748-0.748-1.96 0-2.708s1.96-0.748 2.708 0l2.708 2.708c0.748 0.748 0.748 1.96 0 2.708-0.735 0.748-1.953 0.748-2.701 0zM8.331 16c0 1.055-0.855 1.916-1.916 1.916h-3.832c-1.061 0-1.916-0.86-1.916-1.916s0.855-1.916 1.916-1.916h3.832c1.061 0 1.916 0.855 1.916 1.916v0zM24.135 21.421l2.708 2.713c0.748 0.748 0.748 1.96 0 2.708s-1.96 0.748-2.708 0l-2.713-2.708c-0.748-0.751-0.748-1.964 0-2.713 0.748-0.748 1.96-0.748 2.713 0z"></path>
</svg>
