<!-- Generated by IcoMoon.io -->
<svg version="1.1" xmlns="http://www.w3.org/2000/svg" width="32" height="32" viewBox="0 0 32 32">
<title>male</title>
<path d="M16 22.576c8.549 0 14.967 2.183 14.967 8.757v0h-29.935c0-6.561 6.418-8.757 14.967-8.757zM16 0.668c5.34 0 3.857 1.577 7.801 1.887-0.087 1.4-1.396 2.152-1.396 2.152 1.065 1.091 1.597 3.184 1.597 5.824l-0.015 0.353c0.648 0.177 1.123 0.693 1.123 1.416 0 1.696-1.627 4.246-2.533 4.466-1.309 2.653-3.497 4.702-6.577 4.702-3.095 0-5.282-2.049-6.577-4.702-0.921-0.221-2.548-2.772-2.548-4.466 0-0.737 0.475-1.239 1.123-1.416 0-0.117-0.015-0.236-0.015-0.353 0-4.836 1.597-9.864 8.016-9.864z"></path>
</svg>
