<!-- Generated by IcoMoon.io -->
<svg version="1.1" xmlns="http://www.w3.org/2000/svg" width="32" height="32" viewBox="0 0 32 32">
<title>message</title>
<path d="M16 28.267c6.775 0 12.267-5.492 12.267-12.267s-5.492-12.267-12.267-12.267c-6.775 0-12.267 5.492-12.267 12.267v12.267h12.267zM16 31.333h-12.545c-1.54 0-2.788-1.248-2.788-2.788v-12.545c0-8.468 6.865-15.333 15.333-15.333s15.333 6.865 15.333 15.333c0 8.468-6.865 15.333-15.333 15.333z"></path>
<path d="M10.564 11.818h10.176c0.847 0 1.533 0.687 1.533 1.533s-0.686 1.533-1.533 1.533h-10.176c-0.847 0-1.533-0.687-1.533-1.533s0.687-1.533 1.533-1.533z"></path>
<path d="M12.655 18.091h5.994c0.847 0 1.533 0.686 1.533 1.533s-0.686 1.533-1.533 1.533h-5.994c-0.847 0-1.533-0.686-1.533-1.533s0.687-1.533 1.533-1.533z"></path>
</svg>
