<?xml version="1.0" encoding="UTF-8"?>
<svg width="18px" height="18px" viewBox="0 0 18 18" version="1.1" xmlns="http://www.w3.org/2000/svg" xmlns:xlink="http://www.w3.org/1999/xlink">
    <title>图标-表单-微信</title>
    <path d="M11.8012201,10.72638 C11.5230957,10.6518014 11.0980745,11.1227514 11.0980745,11.1227514 C10.9622232,11.2586027 10.8388902,11.4878699 10.7299591,11.7312823 C10.5559023,12.1202386 10.0679645,12.2644639 9.71490182,12.0258636 C8.27710093,11.0541664 6.8872153,9.66056472 5.92291601,8.22207882 C5.69135404,7.87665384 5.82330087,7.40436809 6.19490971,7.21770742 C6.53427251,7.04724684 6.84793093,6.88245459 6.84793093,6.88245459 L6.84537932,6.87394355 C7.07743792,6.76831758 7.20796339,6.50721527 7.13992644,6.25323689 C7.13992644,6.25323689 5.1986041,1.5 4.64355405,1.5 C2.90760983,1.5 1.5,2.90760983 1.5,4.64355405 C1.5,5.04174065 1.576822,5.41894931 1.71305003,5.76824452 C3.16955125,10.822399 7.1479066,14.7972437 12.202061,16.2572555 C12.5513391,16.3934836 12.9320584,16.4703056 13.330245,16.4703056 C15.0661721,16.4703056 16.5,15.1465218 16.5,13.4105776 C16.5,13.4105776 14.1083289,11.6535527 11.8012201,10.72638 Z" fill-rule="inherit"></path>
</svg>