<!-- Generated by IcoMoon.io -->
<svg version="1.1" xmlns="http://www.w3.org/2000/svg" width="32" height="32" viewBox="0 0 32 32">
<title>note</title>
<path d="M9.589 9.53h12.392c0.51 0 0.823-0.47 0.823-1.216s-0.313-1.216-0.823-1.216h-12.392c-0.51 0-0.823 0.47-0.823 1.216s0.313 1.216 0.823 1.216zM17.745 20.040h-8.157c-0.51 0-0.823 0.47-0.823 1.216s0.313 1.216 0.823 1.216h8.196c0.432 0 0.823-0.47 0.823-1.216-0.040-0.746-0.353-1.216-0.863-1.216zM21.392 13.569h-11.803c-0.51 0-0.823 0.47-0.823 1.216s0.313 1.216 0.823 1.216h11.803c0.432 0 0.823-0.47 0.823-1.216 0-0.706-0.313-1.216-0.823-1.216zM5.51 0.667h20.98c1.765 0 3.215 1.452 3.215 3.215v19.373c0 4.471-3.608 8.078-8.078 8.078h-16.117c-1.765 0-3.215-1.452-3.215-3.215v-24.235c0-1.765 1.452-3.215 3.215-3.215z"></path>
</svg>
