<!-- Generated by IcoMoon.io -->
<svg version="1.1" xmlns="http://www.w3.org/2000/svg" width="32" height="32" viewBox="0 0 32 32">
<title>phone</title>
<path d="M24.238 0.667h-16.465c-1.352 0-2.443 1.148-2.443 2.556v25.554c0 1.409 1.091 2.556 2.443 2.556h16.465c1.341 0 2.432-1.148 2.432-2.556v-25.554c0-1.409-1.091-2.556-2.432-2.556v0zM16 29.117c-1.356 0-2.453-1.153-2.453-2.58 0-1.411 1.099-2.564 2.453-2.564s2.453 1.153 2.453 2.564c0 1.427-1.099 2.58-2.453 2.58zM23.626 20.984c0 0.784-0.603 1.408-1.341 1.408h-12.567c-0.739 0-1.341-0.624-1.341-1.408v-15.715c0-0.784 0.603-1.409 1.341-1.409h12.567c0.74 0 1.341 0.625 1.341 1.409v15.715z"></path>
</svg>
