<!-- Generated by IcoMoon.io -->
<svg version="1.1" xmlns="http://www.w3.org/2000/svg" width="32" height="32" viewBox="0 0 32 32">
<title>question</title>
<path d="M16 4.040c-6.605 0-11.96 5.355-11.96 11.96s5.355 11.96 11.96 11.96c6.605 0 11.96-5.355 11.96-11.96s-5.355-11.96-11.96-11.96zM16 0.667c8.468 0 15.333 6.865 15.333 15.333s-6.865 15.333-15.333 15.333c-8.468 0-15.333-6.865-15.333-15.333s6.865-15.333 15.333-15.333z"></path>
<path d="M16.008 25.723c-1.197 0-2.174-0.941-2.174-2.109s0.976-2.109 2.174-2.109c1.197 0 2.174 0.941 2.174 2.109s-0.976 2.109-2.174 2.109zM18.828 16.928c-0.426 0.331-0.783 0.741-1.022 1.135-0.203 0.387-0.389 2.044-1.877 2.044-0.992 0-1.559-0.372-1.7-1.116-0.025-0.827 0.133-1.649 0.483-2.44 0.465-0.788 1.069-1.474 1.774-2.014 0.526-0.421 1.020-0.886 1.451-1.358 0.198-0.272 0.305-0.609 0.303-0.959 0.001-0.489-0.203-0.951-0.551-1.259-0.428-0.379-0.969-0.575-1.541-0.553-0.557-0.007-1.099 0.195-1.504 0.545-0.47 0.507-0.792 1.152-0.918 1.782 0 0.679-0.733 1.409-1.822 1.293-1.135-0.12-1.626-0.731-1.612-1.66 0.085-1.394 0.698-2.694 1.697-3.598 1.112-1.036 2.547-1.597 3.999-1.572 1.542-0.086 3.058 0.445 4.252 1.492 0.977 0.881 1.534 2.176 1.523 3.521 0.018 0.749-0.167 1.487-0.553 2.158-0.679 0.965-1.481 1.826-2.381 2.559z"></path>
</svg>
