<!-- Generated by IcoMoon.io -->
<svg version="1.1" xmlns="http://www.w3.org/2000/svg" width="32" height="32" viewBox="0 0 32 32">
<title>remove</title>
<path d="M16 0.75c4.312 0.113 7.903 1.606 10.774 4.476s4.363 6.462 4.476 10.774c-0.113 4.312-1.606 7.903-4.476 10.774s-6.462 4.363-10.774 4.476c-4.312-0.113-7.903-1.606-10.774-4.476s-4.363-6.462-4.476-10.774c0.113-4.312 1.606-7.903 4.476-10.774s6.462-4.363 10.774-4.476zM8.375 16c0 0.363 0.125 0.669 0.374 0.919s0.556 0.374 0.919 0.374h12.663c0.363 0 0.669-0.125 0.919-0.374s0.374-0.556 0.374-0.919c0-0.363-0.125-0.669-0.374-0.919s-0.556-0.374-0.919-0.374h-12.663c-0.363 0-0.669 0.125-0.919 0.374s-0.374 0.556-0.374 0.919z"></path>
</svg>
