<!-- Generated by IcoMoon.io -->
<svg version="1.1" xmlns="http://www.w3.org/2000/svg" width="32" height="32" viewBox="0 0 32 32">
<title>search</title>
<path d="M14.386 28.358c7.571 0 13.708-6.137 13.708-13.708s-6.137-13.708-13.708-13.708c-7.571 0-13.708 6.137-13.708 13.708s6.137 13.708 13.708 13.708zM14.386 25.195c-5.824 0-10.544-4.721-10.544-10.544s4.721-10.544 10.544-10.544c5.824 0 10.544 4.721 10.544 10.544s-4.721 10.544-10.544 10.544z"></path>
<path d="M22.284 24.258l2.237-2.237 6.337 6.337c0.617 0.617 0.617 1.619 0 2.237s-1.619 0.617-2.237 0l-6.337-6.337z"></path>
</svg>
