<!-- Generated by IcoMoon.io -->
<svg version="1.1" xmlns="http://www.w3.org/2000/svg" width="32" height="32" viewBox="0 0 32 32">
<title>setting</title>
<path d="M15.614 4.457l-9.417 5.437c-0.239 0.138-0.386 0.393-0.386 0.669v10.873c0 0.276 0.147 0.531 0.386 0.669l9.417 5.437c0.239 0.138 0.534 0.138 0.773 0l9.417-5.437c0.239-0.138 0.386-0.393 0.386-0.669v-10.873c0-0.276-0.147-0.531-0.386-0.669l-9.417-5.437c-0.239-0.138-0.534-0.138-0.773 0zM17.159 0.977l11.271 6.508c0.717 0.414 1.159 1.179 1.159 2.008v13.015c0 0.828-0.442 1.594-1.159 2.008l-11.271 6.508c-0.717 0.414-1.601 0.414-2.318 0l-11.271-6.508c-0.717-0.414-1.159-1.179-1.159-2.008v-13.015c0-0.828 0.442-1.594 1.159-2.008l11.271-6.508c0.717-0.414 1.601-0.414 2.318 0z"></path>
<path d="M15.934 19.318c1.75 0 3.168-1.419 3.168-3.168s-1.419-3.168-3.168-3.168c-1.75 0-3.168 1.419-3.168 3.168s1.419 3.168 3.168 3.168zM15.934 22.718c-3.628 0-6.569-2.941-6.569-6.569s2.941-6.569 6.569-6.569c3.628 0 6.569 2.941 6.569 6.569s-2.941 6.569-6.569 6.569z"></path>
</svg>
