<!-- Generated by IcoMoon.io -->
<svg version="1.1" xmlns="http://www.w3.org/2000/svg" width="32" height="32" viewBox="0 0 32 32">
<title>spinner</title>
<path d="M16 30.489c-4.085 0-7.927-1.591-10.816-4.48s-4.481-6.73-4.481-10.816c0-2.894 0.812-5.711 2.348-8.146 1.494-2.368 3.605-4.283 6.106-5.536l1.285 2.565c-2.033 1.018-3.749 2.575-4.964 4.501-1.247 1.978-1.907 4.266-1.907 6.617 0 6.853 5.575 12.428 12.428 12.428s12.428-5.575 12.428-12.428c0-2.351-0.659-4.639-1.907-6.617-1.215-1.926-2.932-3.482-4.964-4.501l1.285-2.565c2.501 1.253 4.612 3.166 6.106 5.536 1.536 2.437 2.348 5.254 2.348 8.146 0 4.085-1.591 7.927-4.48 10.816s-6.73 4.48-10.816 4.48z"></path>
</svg>
