<!-- Generated by IcoMoon.io -->
<svg version="1.1" xmlns="http://www.w3.org/2000/svg" width="32" height="32" viewBox="0 0 32 32">
<title>tag-group</title>
<path d="M25.042 18.225c0-0.559-0.187-1.039-0.585-1.465l-11.425-11.398c-0.4-0.4-0.957-0.745-1.625-1.039-0.693-0.295-1.303-0.427-1.865-0.427h-6.655c-0.559 0-1.039 0.213-1.439 0.612s-0.612 0.88-0.612 1.439v6.631c0 0.559 0.132 1.199 0.427 1.865 0.295 0.693 0.612 1.225 1.039 1.625l11.425 11.425c0.4 0.4 0.88 0.585 1.439 0.585s1.039-0.187 1.465-0.585l7.83-7.83c0.369-0.4 0.583-0.88 0.583-1.439v0zM7.385 10.474c-0.4 0.4-0.88 0.585-1.439 0.585s-1.039-0.187-1.439-0.585c-0.4-0.4-0.585-0.88-0.585-1.439s0.187-1.039 0.585-1.439c0.4-0.4 0.88-0.585 1.439-0.585s1.039 0.187 1.439 0.585c0.4 0.4 0.585 0.88 0.585 1.439 0.027 0.561-0.187 1.039-0.585 1.439zM30.579 16.76l-11.425-11.398c-0.4-0.4-0.957-0.745-1.625-1.039-0.693-0.295-1.303-0.427-1.865-0.427h-3.592c0.559 0 1.199 0.132 1.865 0.427 0.693 0.295 1.225 0.612 1.625 1.039l11.425 11.398c0.4 0.427 0.585 0.904 0.585 1.465s-0.187 1.039-0.585 1.439l-7.484 7.508c0.319 0.319 0.612 0.559 0.853 0.717s0.559 0.213 0.931 0.213c0.559 0 1.039-0.187 1.465-0.585l7.827-7.854c0.4-0.4 0.585-0.88 0.585-1.439s-0.187-1.039-0.585-1.465z"></path>
</svg>
