<!-- Generated by IcoMoon.io -->
<svg version="1.1" xmlns="http://www.w3.org/2000/svg" width="32" height="32" viewBox="0 0 32 32">
<title>tag</title>
<path d="M12.419 0.669c2.989-0.007 4.732 1.717 7.145 4.1l10.691 10.882c0.684 0.665 1.077 1.621 1.077 2.631 0 1.003-0.388 1.953-1.064 2.607l-9.697 9.466c-1.343 1.304-3.898 1.309-5.246-0.007l-12.049-11.813c-2.083-2.024-2.609-2.832-2.609-5.577v-5.198c0-4.902 0.995-7.093 6.889-7.093h4.862zM9.116 5.677c-1.895 0-3.441 1.547-3.441 3.441 0 1.897 1.547 3.444 3.441 3.444 1.897 0 3.444-1.547 3.444-3.444 0-1.895-1.547-3.441-3.444-3.441z"></path>
</svg>
